<svg width="180" height="170" viewBox="0 0 180 170" fill="none" xmlns="http://www.w3.org/2000/svg">
<path d="M131.52 92.9964C131.52 92.9964 138.411 85.7641 150.153 81.3917C143.2 65.8056 141.421 46.0036 141.421 46.0036L146.079 24.8282L124.829 35.5637L109.398 30.9218L107.941 9.45947C107.941 9.45947 34.0028 77.4365 49.1463 160.052H130.648C130.648 160.052 139.798 145.813 137.051 131.279C153.642 144.04 161.668 144.822 164.415 141.145C169.074 134.913 164.128 127.515 136.475 110.112C133.849 99.6724 131.52 92.9964 131.52 92.9964Z" stroke="#18ACFF" stroke-width="1.5" stroke-miterlimit="10" stroke-linecap="round" stroke-linejoin="round"/>
<path d="M93.3122 124.542C93.3122 124.542 92.1781 159.209 101.608 160.052C113.175 161.086 113.175 142.162 111.43 131.062" stroke="#18ACFF" stroke-width="1.5" stroke-miterlimit="10" stroke-linecap="round" stroke-linejoin="round"/>
<path d="M108.281 17.0393L101.512 28.3485" stroke="#18ACFF" stroke-width="1.5" stroke-miterlimit="10" stroke-linecap="round" stroke-linejoin="round"/>
<path d="M134.381 39.1885L144.386 32.4951" stroke="#18ACFF" stroke-width="1.5" stroke-miterlimit="10" stroke-linecap="round" stroke-linejoin="round"/>
<path d="M108.709 5L107.365 9.45936L112.634 9.02473" stroke="#18ACFF" stroke-width="1.5" stroke-miterlimit="10" stroke-linecap="round" stroke-linejoin="round"/>
<path d="M103.545 6.77344L107.366 9.45949" stroke="#18ACFF" stroke-width="1.5" stroke-miterlimit="10" stroke-linecap="round" stroke-linejoin="round"/>
<path d="M148.652 20.5601L146.079 24.4457L151.252 25.541" stroke="#18ACFF" stroke-width="1.5" stroke-miterlimit="10" stroke-linecap="round" stroke-linejoin="round"/>
<path d="M143.2 20.7773L146.079 24.4457" stroke="#18ACFF" stroke-width="1.5" stroke-miterlimit="10" stroke-linecap="round" stroke-linejoin="round"/>
<path d="M99.6457 64.2842C99.6457 64.2842 83.2379 40.193 59.4287 36.4795" stroke="#18ACFF" stroke-width="1.5" stroke-miterlimit="10" stroke-linecap="round" stroke-linejoin="round"/>
<path d="M94.83 68.1699C94.83 68.1699 77.1216 53.5178 58.1172 57.2314" stroke="#18ACFF" stroke-width="1.5" stroke-miterlimit="10" stroke-linecap="round" stroke-linejoin="round"/>
<path d="M136.108 73.4201C152.046 64.2213 165.153 69.0268 165.153 69.0268" stroke="#18ACFF" stroke-width="1.5" stroke-miterlimit="10" stroke-linecap="round" stroke-linejoin="round"/>
<path d="M140.558 77.6797C153.552 73.4755 160.778 79.5299 160.778 79.5299" stroke="#18ACFF" stroke-width="1.5" stroke-miterlimit="10" stroke-linecap="round" stroke-linejoin="round"/>
<path d="M116.22 62.3978L116.612 59.9899C117.336 55.5219 114.632 50.9756 110.2 50.0194C105.472 49.0023 100.901 52.1404 100.143 56.8432L99.6715 59.7118C99.5494 60.4506 100.055 61.1461 100.797 61.2678L114.658 63.5105C115.4 63.6409 116.097 63.1367 116.22 62.3978Z" fill="white"/>
<path d="M136.501 66.2055L136.876 63.9106C137.574 59.6338 134.983 55.2787 130.735 54.366C126.207 53.3924 121.837 56.4001 121.104 60.9029L120.659 63.6498C120.546 64.3626 121.026 65.032 121.741 65.145L135.009 67.2921C135.716 67.3964 136.387 66.9096 136.501 66.2055Z" fill="white"/>
<path d="M125.178 70.5083C124.48 69.8476 121.445 68.3872 118.234 69.8129L121.54 72.7684L125.178 70.5083Z" fill="#18ACFF" stroke="#18ACFF" stroke-width="1.5" stroke-miterlimit="10" stroke-linecap="round" stroke-linejoin="round"/>
<path d="M117.885 79.1053L121.54 72.7683" stroke="#18ACFF" stroke-width="1.5" stroke-miterlimit="10" stroke-linecap="round" stroke-linejoin="round"/>
<path d="M114.091 61.0073C114.091 58.921 112.399 57.2346 110.305 57.2346C108.221 57.2346 106.52 58.921 106.52 61.0073C106.52 61.4593 106.615 61.8939 106.764 62.2938L113.254 63.3456C113.777 62.6936 114.091 61.8939 114.091 61.0073Z" fill="#E66304"/>
<path d="M134.259 64.9103C134.259 62.8328 132.567 61.1377 130.473 61.1377C128.389 61.1377 126.688 62.8241 126.688 64.9103C126.688 65.2928 126.757 65.6492 126.862 65.9969L133.553 67.0748C133.998 66.4576 134.259 65.7188 134.259 64.9103Z" fill="#E66304"/>
<path d="M126.042 43.926L125.073 48.9852L131.816 50.1413L126.042 43.926Z" fill="#18ACFF" stroke="#18ACFF" stroke-width="1.5" stroke-miterlimit="10" stroke-linecap="round" stroke-linejoin="round"/>
<path d="M119.158 40.9619L118.277 46.0385L111.561 44.7693L119.158 40.9619Z" fill="#18ACFF" stroke="#18ACFF" stroke-width="1.5" stroke-miterlimit="10" stroke-linecap="round" stroke-linejoin="round"/>
<path d="M49.1463 160.061C49.1463 160.061 -13.7222 120.152 10.5896 74.6633C45.7268 79.114 47.6023 105.583 48.527 118.24" stroke="#18ACFF" stroke-width="1.5" stroke-miterlimit="10" stroke-linecap="round" stroke-linejoin="round"/>
<path d="M8.28906 112.739L11.0992 101.754L22.1548 106.936L24.3141 93.6351L37.8746 97.8673L39.071 88.5371" stroke="#18ACFF" stroke-width="1.5" stroke-miterlimit="10" stroke-linecap="round" stroke-linejoin="round"/>
<path d="M94.8301 145.813C94.8301 145.813 103.63 140.261 112.172 145.066" stroke="#18ACFF" stroke-width="1.5" stroke-miterlimit="10" stroke-linecap="round" stroke-linejoin="round"/>
<path d="M150.022 139.815C150.022 139.815 150.022 129.174 158.222 125.768" stroke="#18ACFF" stroke-width="1.5" stroke-miterlimit="10" stroke-linecap="round" stroke-linejoin="round"/>
<path d="M77.7061 129.679C77.7061 129.679 94.5856 141.067 81.9892 160.104" stroke="#18ACFF" stroke-width="1.5" stroke-miterlimit="10" stroke-linecap="round" stroke-linejoin="round"/>
<path d="M151.007 160.104C150.963 152.759 156.895 146.778 164.266 146.726C170.163 146.691 174.97 151.42 175.005 157.296C175.031 161.999 171.236 165.824 166.517 165.859C162.749 165.885 159.669 162.851 159.643 159.096C159.626 156.088 162.059 153.637 165.078 153.619C167.494 153.602 169.457 155.54 169.474 157.948C169.483 159.869 167.93 161.443 166.002 161.451" stroke="#18ACFF" stroke-width="1.5" stroke-miterlimit="10" stroke-linecap="round" stroke-linejoin="round"/>
</svg>
