<svg width="180" height="230" viewBox="0 0 180 230" fill="none" xmlns="http://www.w3.org/2000/svg">
<path d="M40.216 104.848C36.128 97.8444 17.4203 96.0909 15.2336 110.478C13.5646 121.454 20.9907 143.341 48.3921 134.763C48.3921 134.763 64.3956 186.672 107.484 179.531C154.628 171.725 134.917 65.2459 129.751 55.8867" stroke="#41435B" stroke-width="2" stroke-miterlimit="10" stroke-linecap="round" stroke-linejoin="round"/>
<path d="M48.4033 134.763L74.8751 225.049" stroke="#41435B" stroke-width="2" stroke-miterlimit="10" stroke-linecap="round" stroke-linejoin="round"/>
<path d="M124.67 169.77L133.987 188.151C137.621 195.133 143.388 200.774 150.445 204.249L170.209 213.968" stroke="#41435B" stroke-width="2" stroke-miterlimit="10" stroke-linecap="round" stroke-linejoin="round"/>
<path d="M65.4629 194.52L30.9629 206.975" stroke="#41435B" stroke-width="2" stroke-miterlimit="10" stroke-linecap="round" stroke-linejoin="round"/>
<path d="M68.0397 106.686L94.8601 104.351C95.42 104.299 95.832 103.813 95.7897 103.253C95.6313 100.792 94.9024 94.6332 91.7439 94.2212C86.8742 93.5768 79.4904 95.8374 74.8637 97.8444C71.7369 99.2071 68.7369 102.577 67.0045 104.795C66.3707 105.609 67.0151 106.77 68.0397 106.686Z" fill="white"/>
<path d="M108.804 104.33L133.512 103.306C134.251 103.274 134.821 102.661 134.8 101.932C134.716 99.4077 134.219 94.1049 131.494 93.5979C127.068 92.7739 120.434 93.9042 116.114 95.5943C112.924 96.8408 109.67 100.707 108.033 102.883C107.579 103.496 108.043 104.362 108.804 104.33Z" fill="white"/>
<path d="M106.025 97.8444C106.025 104.383 115.733 116.52 115.712 122.542C115.701 127.179 106.944 128.351 106.944 128.351" stroke="#41435B" stroke-width="2" stroke-miterlimit="10" stroke-linecap="round" stroke-linejoin="round"/>
<path d="M97.7441 138.503C115.258 139.939 116.146 133.961 116.146 133.961" stroke="#41435B" stroke-width="2" stroke-miterlimit="10" stroke-linecap="round" stroke-linejoin="round"/>
<path d="M93.0224 86.5415C83.5154 87.2282 80.4309 85.6753 73.8922 86.869C67.9978 87.9465 64.4062 93.1225 64.4062 93.1225" stroke="#41435B" stroke-width="2" stroke-miterlimit="10" stroke-linecap="round" stroke-linejoin="round"/>
<path d="M110.875 85.9605C119.04 84.5133 121.058 82.5169 126.857 82.1894C133.586 81.8091 136.29 86.3936 136.29 86.3936" stroke="#41435B" stroke-width="2" stroke-miterlimit="10" stroke-linecap="round" stroke-linejoin="round"/>
<path d="M131.515 93.5662C128.589 93.0275 124.702 93.3338 121.152 94.0944C122.092 98.119 125.24 101.52 129.571 103.496L133.67 103.327C134.346 103.295 134.864 102.746 134.853 102.08C134.769 99.5873 134.304 94.0838 131.515 93.5662Z" fill="#1AACFF"/>
<path d="M91.7447 94.2212C88.2905 93.7669 83.5898 94.781 79.4912 96.112C81.2342 100.189 85.3328 103.401 90.5088 104.721L94.8715 104.341C95.4208 104.299 95.8222 103.823 95.7905 103.274C95.632 100.844 94.9137 94.6437 91.7447 94.2212Z" fill="#1AACFF"/>
<path d="M39.2858 119.88C36.4759 113.679 29.5146 115.2 29.5146 115.2" stroke="#41435B" stroke-width="2" stroke-miterlimit="10" stroke-linecap="round" stroke-linejoin="round"/>
<path d="M129.751 55.8867C110.874 64.9184 93.0222 43.612 64.406 47.1613C36.8356 50.5839 53.7792 73.781 45.1701 84.5029C32.325 100.506 60.3391 112.38 54.8567 133.961C56.082 128.351 43.5328 95.5205 29.0398 99.4712C10.8074 81.8515 6.68771 48.9465 11.8532 21.0275C38.1983 22.0416 62.2722 -4.45133 95.832 9.10148C120.878 19.2212 126.73 40.9184 129.751 55.8867Z" fill="#1AACFF" stroke="#1AACFF" stroke-width="2" stroke-miterlimit="10" stroke-linecap="round" stroke-linejoin="round"/>
<path d="M106.48 145.084C106.48 145.084 113.801 145.57 115.248 141.587" stroke="#41435B" stroke-width="2" stroke-miterlimit="10" stroke-linecap="round" stroke-linejoin="round"/>
<path d="M51.2758 55.8867C49.0152 59.1085 44.7159 70.0416 35.7793 64.9184" stroke="black" stroke-width="2" stroke-miterlimit="10" stroke-linecap="round" stroke-linejoin="round"/>
<path d="M51.2748 62.7423C49.0142 65.9747 47.3452 74.4148 38.1445 73.5275" stroke="black" stroke-width="2" stroke-miterlimit="10" stroke-linecap="round" stroke-linejoin="round"/>
<path d="M95.0297 42.9677C81.572 42.9677 77.9698 27.4712 58.0156 30.2705" stroke="#41435B" stroke-width="2" stroke-miterlimit="10" stroke-linecap="round" stroke-linejoin="round"/>
<path d="M84.1599 29.9325C78.2972 19.274 67.3746 15.0381 54.7197 16.6543" stroke="#41435B" stroke-width="2" stroke-miterlimit="10" stroke-linecap="round" stroke-linejoin="round"/>
<path d="M21.001 29.9325C27.2862 38.0029 36.1383 45.0487 51.2756 42.9677" stroke="#41435B" stroke-width="2" stroke-miterlimit="10" stroke-linecap="round" stroke-linejoin="round"/>
<path d="M34.3961 53.6578C24.7623 53.6578 20.9912 42.0381 20.9912 42.0381" stroke="#41435B" stroke-width="2" stroke-miterlimit="10" stroke-linecap="round" stroke-linejoin="round"/>
<path d="M125.81 51.5557C112.416 48.6508 120 37.9923 106.934 32.9958" stroke="#41435B" stroke-width="2" stroke-miterlimit="10" stroke-linecap="round" stroke-linejoin="round"/>
<path d="M79.6031 124.146C80.4071 121.051 77.4152 117.596 72.9204 116.428C68.4256 115.26 64.13 116.822 63.326 119.916C62.5219 123.011 65.5139 126.466 70.0087 127.634C74.5034 128.802 78.799 127.24 79.6031 124.146Z" fill="#41435B" stroke="#41435B" stroke-miterlimit="10" stroke-linecap="round" stroke-linejoin="round"/>
<path d="M136.02 120.469C138.669 117.821 139.157 114.015 137.111 111.969C135.065 109.923 131.259 110.411 128.611 113.059C125.962 115.708 125.474 119.513 127.52 121.56C129.566 123.606 133.372 123.117 136.02 120.469Z" fill="#41435B" stroke="#41435B" stroke-miterlimit="10" stroke-linecap="round" stroke-linejoin="round"/>
<path d="M40.216 104.753C36.128 97.7493 17.4203 95.9958 15.2336 110.383C13.5646 121.358 20.9907 143.246 48.3921 134.668" stroke="#41435B" stroke-width="2" stroke-miterlimit="10" stroke-linecap="round" stroke-linejoin="round"/>
</svg>
