<svg width="200" height="250" viewBox="0 0 200 250" fill="none" xmlns="http://www.w3.org/2000/svg">
<path d="M138.349 230.019C123.845 223.792 119.159 217.846 118.812 206.677C118.465 195.509 118.431 139.916 118.431 139.916L137.755 150.954L138.349 230.019Z" fill="#0A82BF"/>
<path d="M146.177 233.019L146.157 233.018L134.308 228.467C131.456 227.373 128.917 225.792 126.736 223.837C128.752 220.769 139.949 200.831 120.112 162.319C119.075 160.309 118.136 158.362 117.264 156.449C116.092 153.912 115.096 151.462 114.207 149.058C95.1557 97.8688 135.709 82.7529 99.6673 32.8689C76.6776 30.8291 65.0551 72.6403 38.8045 83.7722C32.7128 92.6264 28.5353 105.064 31.0183 116.153C38.3385 148.962 34.3044 157.702 56.5591 160.899C57.9714 161.095 59.4056 161.253 60.8821 161.362L50.245 223.352C50.245 223.352 3.56042 210.62 8.47917 151.876C14.2715 82.621 22.0557 39.8288 63.227 16.2326C93.338 -1.00503 117.651 11.0177 119.335 18.8653C127.429 16.1917 163.925 19.0555 165.221 77.8608C166.76 147.249 226.038 210.337 146.177 233.019Z" fill="#1AACFF" stroke="#1AACFF" stroke-width="2" stroke-miterlimit="10" stroke-linecap="round" stroke-linejoin="round"/>
<path d="M38.5054 84.219C32.5954 93.0417 28.5893 105.237 31.0204 116.153C38.3597 148.983 34.3161 157.713 56.5707 160.91C73.4457 163.334 96.6956 160.04 112.267 150.349" stroke="#41435B" stroke-width="2" stroke-miterlimit="10" stroke-linecap="round" stroke-linejoin="round"/>
<path d="M117.423 161.402L118.812 206.677C119.107 216.402 125.221 224.998 134.308 228.467L162.455 239.229" stroke="#41435B" stroke-width="2" stroke-miterlimit="10" stroke-linecap="round" stroke-linejoin="round"/>
<path d="M74.9808 67.4501C81.9265 67.0652 93.3486 65.3687 99.2918 70.7732C102.931 74.0774 105.637 77.8484 105.637 77.8484" stroke="#41435B" stroke-width="2" stroke-miterlimit="10" stroke-linecap="round" stroke-linejoin="round"/>
<path d="M71.7056 87.0883C81.0242 74.3211 96.2223 83.2532 100.883 89.7488C92.7554 97.186 80.425 98.3994 71.7056 87.0883Z" fill="white"/>
<path d="M56.2664 74.3003C56.2664 74.3003 57.5036 88.7544 43.0353 94.9931C41.3391 95.7244 40.4786 97.6362 41.0468 99.3948C43.0493 105.575 51.1389 107.266 51.1389 107.266" stroke="#41435B" stroke-width="2" stroke-miterlimit="10" stroke-linecap="round" stroke-linejoin="round"/>
<path d="M43.3363 120.365C46.1114 119.895 51.1616 120.222 54.9071 121.899C61.1239 124.674 63.4913 124.785 66.1904 123.8" stroke="#41435B" stroke-width="2" stroke-miterlimit="10" stroke-linecap="round" stroke-linejoin="round"/>
<path d="M58.4059 123.325C52.4849 118.512 53.5962 115.311 48.4998 117.674C45.2524 114.128 43.3485 120.356 43.3485 120.356C43.3485 120.356 51.7479 119.499 58.4059 123.325Z" fill="#41435B" stroke="#41435B" stroke-width="2" stroke-miterlimit="10" stroke-linecap="round" stroke-linejoin="round"/>
<path d="M43.665 125.967C45.279 129.546 51.9679 130.581 55.7724 128.227" stroke="#41435B" stroke-width="2" stroke-miterlimit="10" stroke-linecap="round" stroke-linejoin="round"/>
<path d="M72.5947 116.592C72.5947 116.592 79.6284 120.306 76.648 125.792" stroke="#41435B" stroke-width="2" stroke-miterlimit="10" stroke-linecap="round" stroke-linejoin="round"/>
<path d="M100.883 89.7387C97.4911 85.0145 88.5228 79.0075 80.3006 80.9943C80.1707 81.6289 80.0703 82.275 80.0389 82.9442C79.7638 88.8078 83.6896 93.8974 89.1596 95.3053C93.4173 94.8143 97.5151 92.8242 100.883 89.7387Z" fill="#1AACFF"/>
<path d="M43.2897 81.4205C43.2897 81.4205 38.2369 84.9876 31.3724 85.7767" stroke="#1AACFF" stroke-width="2" stroke-miterlimit="10" stroke-linecap="round" stroke-linejoin="round"/>
<path d="M83.66 102.959C83.8656 102.139 83.1855 101.263 82.1409 101.001C81.0963 100.738 80.0828 101.19 79.8772 102.01C79.6716 102.83 80.3517 103.707 81.3963 103.969C82.4409 104.231 83.4544 103.779 83.66 102.959Z" fill="#41435B"/>
<path d="M89.0775 110.214C89.306 109.303 88.5532 108.33 87.3961 108.039C86.239 107.749 85.1158 108.252 84.8873 109.163C84.6588 110.073 85.4116 111.047 86.5687 111.337C87.7258 111.627 88.8491 111.124 89.0775 110.214Z" fill="#41435B"/>
<path d="M74.7048 105.494C74.8674 104.846 74.3304 104.152 73.5054 103.945C72.6805 103.738 71.8799 104.096 71.7173 104.744C71.5547 105.393 72.0916 106.086 72.9166 106.293C73.7416 106.5 74.5422 106.142 74.7048 105.494Z" fill="#41435B"/>
<path d="M69.2811 98.8055C69.4867 97.9859 68.8066 97.109 67.762 96.847C66.7174 96.5849 65.7039 97.0369 65.4983 97.8565C65.2927 98.6761 65.9728 99.553 67.0174 99.8151C68.062 100.077 69.0755 99.6251 69.2811 98.8055Z" fill="#41435B"/>
<mask id="mask0" mask-type="alpha" maskUnits="userSpaceOnUse" x="7" y="6" width="182" height="229">
<path d="M178.883 140.981C173.17 121.702 166.697 99.8543 166.208 77.8472C165.489 45.3878 154.01 30.5735 144.505 23.8606C135.076 17.2114 124.958 16.5064 119.989 17.6547C118.842 14.7778 115.474 11.8968 110.718 9.77154C105.678 7.52284 87.3299 1.28601 62.7224 15.3781C19.8647 39.9264 13.0288 85.3359 7.47712 151.809C4.90336 182.552 16.5789 200.629 26.8231 210.38C37.9294 220.962 49.4904 224.197 49.9747 224.33C50.2516 224.403 50.5341 224.357 50.7714 224.208C51.0086 224.058 51.1706 223.806 51.2232 223.538L61.8604 161.548C61.9135 161.271 61.8367 160.987 61.6667 160.768C61.4968 160.55 61.2332 160.408 60.9539 160.385C59.5074 160.277 58.1132 160.121 56.7008 159.925C39.7269 157.477 36.9124 153.247 33.5895 134.67C32.7013 129.703 31.6232 123.686 30.1183 116.928C27.5843 105.647 31.1677 93.5349 36.4701 85.7148C48.6003 80.4476 60.4273 67.9183 68.9728 56.9067C78.4668 44.6683 87.46 33.077 99.1278 33.8247C118.578 60.9462 114.992 77.8467 111.2 95.7286C108 110.795 104.696 126.367 113.266 149.404C114.235 152.013 115.242 154.453 116.35 156.857C117.275 158.903 118.216 160.839 119.216 162.778C138.649 200.5 128.193 219.801 125.897 223.288C125.628 223.695 125.692 224.249 126.067 224.577C128.382 226.658 131.038 228.284 133.949 229.402L145.799 233.952C145.898 233.987 146.006 234.012 146.106 234.017L146.126 234.018C146.236 234.023 146.347 234.008 146.448 233.983C165.574 228.553 177.855 220.49 183.984 209.355C193.835 191.437 186.903 168.056 178.883 140.981Z" fill="#1AACFF"/>
</mask>
<g mask="url(#mask0)">
<path d="M-9.81868 89.7533C-3.09698 92.567 18.6591 95.0104 38.0541 86.0897" stroke="#1182C1" stroke-width="2" stroke-miterlimit="10" stroke-linecap="round" stroke-linejoin="round"/>
<path d="M32.9723 99.1161C8.08979 158.966 28.474 194.13 57.8462 202.666" stroke="#1182C1" stroke-width="2" stroke-miterlimit="10" stroke-linecap="round" stroke-linejoin="round"/>
<path d="M32.7301 121.329C24.9603 159.547 41.2805 182.327 63.1468 188.679" stroke="#1182C1" stroke-width="2" stroke-miterlimit="10" stroke-linecap="round" stroke-linejoin="round"/>
<path d="M98.1208 34.8983L121.197 15.6788" stroke="#1182C1" stroke-width="2" stroke-miterlimit="10" stroke-linecap="round" stroke-linejoin="round"/>
<path d="M96.5743 27.749C56.0761 3.80706 15.6552 83.1452 -1.45772 108.459" stroke="#1182C1" stroke-width="2" stroke-miterlimit="10" stroke-linecap="round" stroke-linejoin="round"/>
<path d="M165.011 51.9726C169.706 84.6185 129.606 160.062 189.373 184.58" stroke="#1182C1" stroke-width="2" stroke-miterlimit="10" stroke-linecap="round" stroke-linejoin="round"/>
<path d="M169.119 97.2148C169.119 97.2148 156.892 143.162 184.394 157.407" stroke="#1182C1" stroke-width="2" stroke-miterlimit="10" stroke-linecap="round" stroke-linejoin="round"/>
<path d="M112.825 73.1602C112.546 108.986 112.003 144.04 137.866 165.055C163.728 186.069 177.149 208.307 166.444 231.63" stroke="#1182C1" stroke-width="2" stroke-miterlimit="10" stroke-linecap="round" stroke-linejoin="round"/>
<path d="M119.384 25.0645C169.215 30.2658 143.83 110.845 160.388 156.301" stroke="#1182C1" stroke-width="2" stroke-miterlimit="10" stroke-linecap="round" stroke-linejoin="round"/>
</g>
</svg>
