<svg width="200" height="250" viewBox="0 0 200 250" fill="none" xmlns="http://www.w3.org/2000/svg">
<path d="M105.607 62.4133C106.217 65.6933 102.207 66.4433 97.2675 67.3633C92.3275 68.2833 88.3375 68.2533 87.7075 65.7433C87.1575 63.5533 91.1075 61.7133 96.0475 60.7933C100.987 59.8733 105.117 59.8033 105.607 62.4133Z" fill="#41435B" stroke="#41435B" stroke-width="2" stroke-miterlimit="10" stroke-linecap="round" stroke-linejoin="round"/>
<path d="M149.558 231.403C156.558 226.293 163.268 209.663 149.678 191.333C139.068 177.023 125.338 173.273 129.108 142.443C129.108 142.423 129.088 142.463 129.108 142.443C132.968 127.313 133.558 101.363 130.758 92.7035C126.888 70.3035 105.058 80.3735 91.1676 40.4035C84.3676 20.8335 64.7876 21.1235 59.1276 32.3235C43.1976 22.7135 19.3376 45.2635 29.8476 70.3035C42.1676 99.6635 37.1676 107.063 35.8476 111.653C36.4176 119.623 50.4976 140.993 59.2076 150.273C59.2076 150.273 59.2076 150.293 59.2276 150.313C59.5676 151.303 67.1976 172.633 72.3076 191.673C68.3076 213.013 52.8276 234.823 13.1576 247.733C45.4776 217.443 -12.7124 204.133 13.0376 153.083C29.7376 119.983 1.33759 112.383 8.86759 56.9335C14.5376 15.1735 41.9076 10.3535 56.0776 13.3935C75.2376 -12.4665 125.768 9.12346 137.778 53.6335C149.108 95.6135 182.388 82.5334 176.958 138.803C173.768 171.933 231.478 191.913 149.558 231.403Z" fill="#1AACFF" stroke="#1AACFF" stroke-width="2" stroke-miterlimit="10" stroke-linecap="round" stroke-linejoin="round"/>
<path d="M90.0273 87.4334C90.0273 87.4334 90.7673 79.5634 93.9873 78.3734C97.2073 77.1834 106.217 74.4434 109.387 75.3034C114.417 76.6634 115.787 80.3434 115.787 80.3434C115.787 80.3434 101.187 90.9534 90.0273 87.4334Z" fill="white"/>
<path d="M68.1075 93.8436C68.1075 93.8436 62.3375 88.5036 59.1675 89.7536C55.9975 91.0036 47.4975 94.9536 45.7175 97.6936C42.8975 102.044 44.3175 105.674 44.3175 105.674C44.3175 105.674 62.1775 103.854 68.1075 93.8436Z" fill="white"/>
<path d="M130.216 94.0234C133.996 121.753 130.916 161.133 109.206 170.703C96.0764 176.493 56.3164 164.593 36.0664 111.613" stroke="#41435B" stroke-width="2" stroke-miterlimit="10" stroke-linecap="round" stroke-linejoin="round"/>
<path d="M73.2373 84.3535C79.5173 96.9535 72.7873 104.884 75.7773 108.954C80.1373 114.904 89.7973 108.614 89.7973 108.614" stroke="#41435B" stroke-width="2" stroke-miterlimit="10" stroke-linecap="round" stroke-linejoin="round"/>
<path d="M77.5391 129.923C77.5391 129.923 87.6091 121.093 105.319 119.203C102.089 128.553 96.9191 130.643 94.1891 131.883C91.4491 133.143 84.4491 134.173 77.5391 129.923Z" fill="#41435B" stroke="#41435B" stroke-width="2" stroke-miterlimit="10" stroke-linecap="round" stroke-linejoin="round"/>
<path d="M59.4375 150.233C59.4375 150.233 79.022 206.567 79.022 222.987" stroke="#41435B" stroke-width="2" stroke-miterlimit="10" stroke-linecap="round" stroke-linejoin="round"/>
<path d="M80.4061 111.844C76.1261 126.114 57.8761 121.964 60.1061 137.554" stroke="#41435B" stroke-width="2" stroke-miterlimit="10" stroke-linecap="round" stroke-linejoin="round"/>
<path d="M95.2773 111.023C105.567 114.263 118.367 100.403 124.207 115.063" stroke="#41435B" stroke-width="2" stroke-miterlimit="10" stroke-linecap="round" stroke-linejoin="round"/>
<path d="M56.1577 74.8935C57.8777 77.8236 54.0677 80.0635 49.3677 82.8236C44.6677 85.5836 40.6077 87.0635 39.1277 84.8935C37.8277 82.9936 41.2177 79.7235 45.9177 76.9635C50.6277 74.1935 54.7877 72.5536 56.1577 74.8935Z" fill="#41435B" stroke="#41435B" stroke-width="2" stroke-miterlimit="10" stroke-linecap="round" stroke-linejoin="round"/>
<path d="M92.7373 140.444C92.7373 140.444 97.2673 140.704 101.537 137.134" stroke="#41435B" stroke-width="2" stroke-miterlimit="10" stroke-linecap="round" stroke-linejoin="round"/>
<path d="M89.1094 129.853C89.1094 129.853 98.2694 127.033 107.059 122.543" stroke="black" stroke-width="2" stroke-miterlimit="10" stroke-linecap="round" stroke-linejoin="round"/>
<path d="M87.5859 165.174L89.9459 169.884" stroke="#41435B" stroke-width="2" stroke-miterlimit="10" stroke-linecap="round" stroke-linejoin="round"/>
<path d="M95.5664 165.363L98.6764 171.573" stroke="#41435B" stroke-width="2" stroke-miterlimit="10" stroke-linecap="round" stroke-linejoin="round"/>
<path d="M103.048 164.094L106.638 171.254" stroke="#41435B" stroke-width="2" stroke-miterlimit="10" stroke-linecap="round" stroke-linejoin="round"/>
<path d="M110.039 160.613L113.399 167.333" stroke="#41435B" stroke-width="2" stroke-miterlimit="10" stroke-linecap="round" stroke-linejoin="round"/>
<path d="M116.308 156.134L119.208 161.934" stroke="#41435B" stroke-width="2" stroke-miterlimit="10" stroke-linecap="round" stroke-linejoin="round"/>
<path d="M121.156 150.354L123.236 154.514" stroke="#41435B" stroke-width="2" stroke-miterlimit="10" stroke-linecap="round" stroke-linejoin="round"/>
<path d="M99.0576 144.003L99.8976 145.953" stroke="#41435B" stroke-width="2" stroke-miterlimit="10" stroke-linecap="round" stroke-linejoin="round"/>
<path d="M68.1072 93.8436C68.1072 93.8436 62.3372 88.5036 59.1672 89.7536C56.8372 90.6736 51.6672 93.0336 48.3672 95.3036C50.3372 98.9736 54.1372 101.504 58.5472 101.704C62.3472 99.9336 65.9872 97.4236 68.1072 93.8436Z" fill="#1AACFF"/>
<path d="M109.377 75.2937C106.557 74.5237 99.0966 76.6137 95.2266 77.9237C96.4766 81.8637 99.6966 85.0237 103.837 86.4537C110.477 84.1637 115.767 80.3337 115.767 80.3337C115.767 80.3337 114.417 76.6637 109.377 75.2937Z" fill="#1AACFF"/>
<mask id="mask0" mask-type="alpha" maskUnits="userSpaceOnUse" x="5" y="1" width="190" height="248">
<path d="M149.558 231.403C156.558 226.293 163.268 209.663 149.678 191.333C139.068 177.023 126.988 173.037 130.758 142.207C133.344 144.682 133.344 144.682 130.758 142.207C134.618 127.077 134.538 100.022 130.758 92.7035C126.888 70.3035 105.058 80.3735 91.1676 40.4035C84.3676 20.8335 64.7876 21.1235 59.1276 32.3235C43.1976 22.7135 19.3376 45.2635 29.8476 70.3035C42.1676 99.6635 36.3632 109.202 35.0432 113.792C36.9855 121.007 48.7086 142.927 58.1185 151.643C58.1185 151.643 59.2076 153.083 59.2276 150.313C59.5676 151.303 67.1976 172.633 72.3076 191.673C68.3076 213.013 52.8276 234.823 13.1576 247.733C45.4776 217.443 -12.7124 204.133 13.0376 153.083C29.7376 119.983 1.33759 112.383 8.86759 56.9335C14.5376 15.1735 41.9076 10.3535 56.0776 13.3935C75.2376 -12.4665 125.768 9.12346 137.778 53.6335C149.108 95.6135 182.388 82.5334 176.958 138.803C173.768 171.933 231.478 191.913 149.558 231.403Z" fill="#1AACFF"/>
<path d="M130.758 142.207C126.988 173.037 139.068 177.023 149.678 191.333C163.268 209.663 156.558 226.293 149.558 231.403C231.478 191.913 173.768 171.933 176.958 138.803C182.388 82.5335 149.108 95.6135 137.778 53.6335C125.768 9.12346 75.2376 -12.4665 56.0776 13.3935C41.9076 10.3535 14.5376 15.1735 8.86759 56.9335C1.33759 112.383 29.7376 119.983 13.0376 153.083C-12.7124 204.133 45.4776 217.443 13.1576 247.733C52.8276 234.823 68.3076 213.013 72.3076 191.673C67.1976 172.633 59.5676 151.303 59.2276 150.313C59.2076 153.083 58.1185 151.643 58.1185 151.643C48.7086 142.927 36.9855 121.007 35.0432 113.792C36.3632 109.202 42.1676 99.6635 29.8476 70.3035C19.3376 45.2635 43.1976 22.7135 59.1276 32.3235C64.7876 21.1235 84.3676 20.8335 91.1676 40.4035C105.058 80.3735 126.888 70.3035 130.758 92.7035C134.538 100.022 134.618 127.077 130.758 142.207ZM130.758 142.207C133.344 144.682 133.344 144.682 130.758 142.207ZM130.758 144.31C133.344 146.785 133.344 146.785 130.758 144.31Z" stroke="black" stroke-width="2" stroke-miterlimit="10" stroke-linecap="round" stroke-linejoin="round"/>
</mask>
<g mask="url(#mask0)">
<path opacity="0.6" d="M164.765 52.7532C124.705 69.7132 109.385 49.4232 97.1147 26.3832C83.7747 1.33317 63.1047 11.6832 57.8747 23.0332C57.8747 23.0332 49.9747 16.5832 37.5547 23.0332" stroke="#1182C1" stroke-width="2" stroke-miterlimit="10" stroke-linecap="round" stroke-linejoin="round"/>
<path opacity="0.6" d="M48.3537 137.123C48.3537 180.063 13.0237 169.883 20.0337 223.013" stroke="#1182C1" stroke-width="2" stroke-miterlimit="10" stroke-linecap="round" stroke-linejoin="round"/>
<path opacity="0.6" d="M54.039 144.004C54.759 188.494 30.2921 183.501 45.1121 241.371" stroke="#1182C1" stroke-width="2" stroke-miterlimit="10" stroke-linecap="round" stroke-linejoin="round"/>
<path opacity="0.6" d="M15.3663 21.5928C22.7463 41.3528 31.3962 90.8828 2.90625 115.063" stroke="#1182C1" stroke-width="2" stroke-miterlimit="10" stroke-linecap="round" stroke-linejoin="round"/>
<path opacity="0.6" d="M7.47701 26.8345C14.0411 41.9256 21.7348 79.7529 -3.60547 98.2197" stroke="#1182C1" stroke-width="2" stroke-miterlimit="10" stroke-linecap="round" stroke-linejoin="round"/>
<path opacity="0.6" d="M130.926 100.403C140.896 135.543 167.836 120.673 185.636 161.933" stroke="#1182C1" stroke-width="2" stroke-miterlimit="10" stroke-linecap="round" stroke-linejoin="round"/>
<path opacity="0.6" d="M124.672 88.4072C154.295 138.209 171.888 107.233 189.688 148.493" stroke="#1182C1" stroke-width="2" stroke-miterlimit="10" stroke-linecap="round" stroke-linejoin="round"/>
<path opacity="0.6" d="M131.344 119.604C138.224 169.884 188.974 167.674 174.614 220.334" stroke="#1182C1" stroke-width="2" stroke-miterlimit="10" stroke-linecap="round" stroke-linejoin="round"/>
<path opacity="0.6" d="M103.914 -2.33691C105.284 10.1631 111.174 44.4031 142.224 48.4131" stroke="#1182C1" stroke-width="2" stroke-miterlimit="10" stroke-linecap="round" stroke-linejoin="round"/>
<path opacity="0.6" d="M89.1328 42.9355C122.504 86.1829 154 65 167.974 53.8364" stroke="#1182C1" stroke-width="2" stroke-miterlimit="10" stroke-linecap="round" stroke-linejoin="round"/>
<path opacity="0.6" d="M37.5769 113.097C32.3046 123.769 16.5941 141.883 6.91406 158.583" stroke="#1182C1" stroke-width="2" stroke-miterlimit="10" stroke-linecap="round" stroke-linejoin="round"/>
</g>
<path d="M55.6193 119.145C58.3586 116.142 58.9022 112.178 56.8335 110.291C54.7648 108.404 50.8672 109.308 48.1279 112.311C45.3886 115.315 44.845 119.279 46.9137 121.166C48.9824 123.053 52.88 122.148 55.6193 119.145Z" fill="#41435B" stroke="#41435B" stroke-miterlimit="10" stroke-linecap="round" stroke-linejoin="round"/>
<path d="M123.131 93.1532C123.242 90.3554 120.04 87.9564 115.978 87.7951C111.917 87.6337 108.534 89.771 108.423 92.5688C108.312 95.3667 111.514 97.7656 115.576 97.927C119.637 98.0883 123.02 95.951 123.131 93.1532Z" fill="#41435B" stroke="#41435B" stroke-miterlimit="10" stroke-linecap="round" stroke-linejoin="round"/>
<path d="M36.9594 108.193C36.9594 108.193 35.5794 115.643 30.6094 119.203" stroke="#1AACFF" stroke-width="2" stroke-miterlimit="10" stroke-linecap="round" stroke-linejoin="round"/>
</svg>
