<svg width="831" height="811" viewBox="0 0 831 811" fill="none" xmlns="http://www.w3.org/2000/svg">
<path opacity="0.4" d="M667.081 176.888C755.846 276.352 734.903 440.047 620.093 542.506C505.284 644.966 340.27 647.224 251.506 547.76C162.741 448.296 183.684 284.601 298.494 182.142C413.303 79.6823 578.317 77.4243 667.081 176.888ZM620.759 543.252C735.878 440.517 757.045 276.194 667.828 176.222C578.61 76.2503 412.946 78.6606 297.828 181.396C182.709 284.131 161.542 448.454 250.76 548.426C339.978 648.398 505.641 645.988 620.759 543.252ZM694.742 154.227C797.811 269.72 769.083 463.745 630.308 587.593C491.532 711.44 295.501 717.995 192.433 602.503C89.364 487.011 118.091 292.986 256.867 169.138C395.643 45.2908 591.674 38.7353 694.742 154.227ZM630.974 588.339C770.028 464.242 799.033 269.587 695.488 153.562C591.944 37.5358 395.256 44.2959 256.201 168.392C117.147 292.488 88.1417 487.143 191.686 603.169C295.231 719.195 491.919 712.435 630.974 588.339ZM722.543 130.493C841.77 264.092 808.036 488.959 646.92 632.744C485.803 776.529 258.563 784.564 139.335 650.965C20.1076 517.366 53.8419 292.499 214.958 148.714C376.075 4.92951 603.315 -3.10565 722.543 130.493ZM647.586 633.49C808.978 489.458 842.995 263.962 723.289 129.827C603.583 -4.30753 375.685 3.93707 214.292 147.968C52.9 292 18.8832 517.495 138.589 651.63C258.295 785.766 486.193 777.521 647.586 633.49ZM750.982 105.985C885.12 256.292 843.776 512.304 658.329 677.802C472.882 843.3 213.834 855.367 79.6959 705.06C-54.4422 554.754 -13.0982 298.742 172.349 133.243C357.796 -32.2549 616.844 -44.3214 750.982 105.985Z" stroke="url(#paint0_linear)"/>
<defs>
<linearGradient id="paint0_linear" x1="-227.838" y1="837.067" x2="1104.19" y2="708.222" gradientUnits="userSpaceOnUse">
<stop stop-color="white" stop-opacity="0"/>
<stop offset="1" stop-color="white" stop-opacity="0.38"/>
</linearGradient>
</defs>
</svg>
