<svg width="1024" height="957" viewBox="0 0 1024 957" fill="none" xmlns="http://www.w3.org/2000/svg">
<path opacity="0.4" d="M247.844 232.463C146.39 346.146 170.453 533.021 301.379 649.864C432.306 766.706 620.703 769.438 722.158 655.754C823.612 542.07 799.55 355.196 668.623 238.353C537.697 121.51 349.299 118.779 247.844 232.463ZM302.045 649.118C171.427 532.551 147.589 346.304 248.59 233.129C349.591 119.953 537.34 122.532 667.957 239.099C798.575 355.666 822.413 541.913 721.412 655.088C620.411 768.263 432.663 765.685 302.045 649.118ZM216.38 206.686C98.6301 338.629 131.604 560.006 289.76 701.149C447.916 842.292 671.604 849.967 789.354 718.024C907.104 586.081 874.129 364.704 715.974 223.561C557.818 82.4182 334.13 74.7426 216.38 206.686ZM290.426 700.403C132.549 559.509 99.8524 338.761 217.126 207.352C334.4 75.9421 557.431 83.4131 715.308 224.307C873.185 365.201 905.881 585.949 788.608 717.358C671.334 848.768 448.303 841.297 290.426 700.403ZM184.757 179.688C48.6237 332.23 87.2985 588.69 270.864 752.509C454.429 916.328 713.619 925.692 849.752 773.149C985.885 620.607 947.211 364.148 763.645 200.329C580.08 36.5099 320.89 27.146 184.757 179.688ZM271.53 751.763C88.2404 588.19 49.8482 332.36 185.503 180.354C321.158 28.3479 579.69 37.5023 762.979 201.075C946.269 364.648 984.661 620.477 849.006 772.484C713.352 924.49 454.819 915.335 271.53 751.763ZM258.552 803.017C47.5877 614.746 0.537323 323.488 153.154 152.476C305.77 -18.5362 600.483 -4.79416 811.448 183.477C1022.41 371.747 1069.46 663.005 916.846 834.017C764.23 1005.03 469.517 991.287 258.552 803.017Z" stroke="url(#paint0_linear)"/>
<defs>
<linearGradient id="paint0_linear" x1="1266.62" y1="984.13" x2="-248.572" y2="837.568" gradientUnits="userSpaceOnUse">
<stop stop-color="white" stop-opacity="0"/>
<stop offset="1" stop-color="white" stop-opacity="0.38"/>
</linearGradient>
</defs>
</svg>
