<svg width="170" height="55" viewBox="0 0 170 55" fill="none" xmlns="http://www.w3.org/2000/svg">
<rect width="170" height="55" rx="6" fill="#262626"/>
<path d="M55.4518 11.4274V19.9448H58.527C61.0651 19.9448 62.5349 18.3806 62.5349 15.6595C62.5349 12.9798 61.0533 11.4274 58.527 11.4274H55.4518ZM56.774 12.6315H58.3795C60.1443 12.6315 61.1891 13.753 61.1891 15.6772C61.1891 17.631 60.162 18.7407 58.3795 18.7407H56.774V12.6315Z" fill="white"/>
<path d="M67.1386 20.0687C69.0156 20.0687 70.1666 18.8115 70.1666 16.7279C70.1666 14.6561 69.0097 13.3929 67.1386 13.3929C65.2616 13.3929 64.1047 14.6561 64.1047 16.7279C64.1047 18.8115 65.2557 20.0687 67.1386 20.0687ZM67.1386 18.9413C66.0348 18.9413 65.4151 18.1327 65.4151 16.7279C65.4151 15.3349 66.0348 14.5203 67.1386 14.5203C68.2365 14.5203 68.8622 15.3349 68.8622 16.7279C68.8622 18.1268 68.2365 18.9413 67.1386 18.9413Z" fill="white"/>
<path d="M80.0591 13.5169H78.7901L77.645 18.4219H77.5446L76.2224 13.5169H75.0065L73.6843 18.4219H73.5899L72.4389 13.5169H71.1521L72.9229 19.9448H74.2274L75.5495 15.2109H75.6499L76.978 19.9448H78.2942L80.0591 13.5169Z" fill="white"/>
<path d="M81.6112 19.9448H82.8803V16.1849C82.8803 15.1814 83.4765 14.5557 84.415 14.5557C85.3535 14.5557 85.8021 15.0693 85.8021 16.1022V19.9448H87.0711V15.7835C87.0711 14.2547 86.2802 13.3929 84.8458 13.3929C83.8778 13.3929 83.2403 13.8238 82.9275 14.538H82.8331V13.5169H81.6112V19.9448Z" fill="white"/>
<path d="M89.1604 19.9448H90.4294V11.0083H89.1604V19.9448Z" fill="white"/>
<path d="M95.2929 20.0687C97.1699 20.0687 98.3209 18.8115 98.3209 16.7279C98.3209 14.6561 97.164 13.3929 95.2929 13.3929C93.4159 13.3929 92.259 14.6561 92.259 16.7279C92.259 18.8115 93.41 20.0687 95.2929 20.0687ZM95.2929 18.9413C94.1891 18.9413 93.5694 18.1327 93.5694 16.7279C93.5694 15.3349 94.1891 14.5203 95.2929 14.5203C96.3908 14.5203 97.0165 15.3349 97.0165 16.7279C97.0165 18.1268 96.3908 18.9413 95.2929 18.9413Z" fill="white"/>
<path d="M102.193 18.9827C101.502 18.9827 101 18.6462 101 18.0678C101 17.5011 101.402 17.2001 102.287 17.1411L103.857 17.0407V17.5779C103.857 18.3747 103.149 18.9827 102.193 18.9827ZM101.868 20.051C102.712 20.051 103.415 19.6851 103.798 19.0417H103.899V19.9448H105.12V15.5533C105.12 14.1957 104.211 13.3929 102.6 13.3929C101.142 13.3929 100.103 14.1012 99.9734 15.205H101.201C101.343 14.7505 101.833 14.4908 102.541 14.4908C103.409 14.4908 103.857 14.8745 103.857 15.5533V16.1081L102.116 16.2085C100.587 16.3029 99.7255 16.9699 99.7255 18.1268C99.7255 19.3014 100.629 20.051 101.868 20.051Z" fill="white"/>
<path d="M109.518 20.051C110.403 20.051 111.153 19.6319 111.536 18.9295H111.637V19.9448H112.853V11.0083H111.584V14.538H111.489C111.141 13.8297 110.397 13.4106 109.518 13.4106C107.894 13.4106 106.85 14.6974 106.85 16.7279C106.85 18.7643 107.883 20.051 109.518 20.051ZM109.878 14.5498C110.94 14.5498 111.607 15.3939 111.607 16.7338C111.607 18.0796 110.946 18.9118 109.878 18.9118C108.803 18.9118 108.16 18.0914 108.16 16.7279C108.16 15.3762 108.809 14.5498 109.878 14.5498Z" fill="white"/>
<path d="M121.263 20.0687C123.14 20.0687 124.291 18.8115 124.291 16.7279C124.291 14.6561 123.134 13.3929 121.263 13.3929C119.386 13.3929 118.229 14.6561 118.229 16.7279C118.229 18.8115 119.38 20.0687 121.263 20.0687ZM121.263 18.9413C120.159 18.9413 119.54 18.1327 119.54 16.7279C119.54 15.3349 120.159 14.5203 121.263 14.5203C122.361 14.5203 122.987 15.3349 122.987 16.7279C122.987 18.1268 122.361 18.9413 121.263 18.9413Z" fill="white"/>
<path d="M126.062 19.9448H127.331V16.1849C127.331 15.1814 127.927 14.5557 128.866 14.5557C129.804 14.5557 130.253 15.0693 130.253 16.1022V19.9448H131.522V15.7835C131.522 14.2547 130.731 13.3929 129.296 13.3929C128.328 13.3929 127.691 13.8238 127.378 14.538H127.284V13.5169H126.062V19.9448Z" fill="white"/>
<path d="M137.548 11.9173V13.5464H136.527V14.6148H137.548V18.2448C137.548 19.4844 138.108 19.9802 139.519 19.9802C139.767 19.9802 140.003 19.9507 140.21 19.9153V18.8587C140.033 18.8764 139.921 18.8882 139.726 18.8882C139.094 18.8882 138.817 18.5931 138.817 17.9202V14.6148H140.21V13.5464H138.817V11.9173H137.548Z" fill="white"/>
<path d="M142.004 19.9448H143.273V16.1908C143.273 15.2168 143.851 14.5616 144.89 14.5616C145.787 14.5616 146.266 15.0811 146.266 16.1081V19.9448H147.535V15.7953C147.535 14.2665 146.691 13.3988 145.321 13.3988C144.353 13.3988 143.674 13.8297 143.362 14.5498H143.261V11.0083H142.004V19.9448Z" fill="white"/>
<path d="M152.203 14.4731C153.142 14.4731 153.756 15.1283 153.785 16.1376H150.539C150.61 15.1342 151.265 14.4731 152.203 14.4731ZM153.779 18.2094C153.543 18.7111 153.018 18.9886 152.251 18.9886C151.235 18.9886 150.58 18.2744 150.539 17.147V17.0761H155.078V16.6334C155.078 14.6148 153.998 13.3929 152.209 13.3929C150.397 13.3929 149.246 14.6974 149.246 16.7515C149.246 18.8056 150.374 20.0687 152.215 20.0687C153.685 20.0687 154.724 19.3545 155.001 18.2094H153.779Z" fill="white"/>
<path fill-rule="evenodd" clip-rule="evenodd" d="M104.926 37.4363H102.428C102.586 40.386 105.028 42.2507 108.644 42.2507C112.509 42.2507 114.939 40.3408 114.939 37.2894C114.939 34.9047 113.549 33.5599 110.204 32.7687L108.407 32.328C106.305 31.8081 105.446 31.13 105.446 29.9773C105.446 28.5307 106.791 27.5361 108.757 27.5361C110.723 27.5361 112.068 28.5194 112.215 30.1468H114.679C114.6 27.3327 112.238 25.4001 108.791 25.4001C105.31 25.4001 102.858 27.3327 102.858 30.1468C102.858 32.4184 104.248 33.8198 107.243 34.5431L109.356 35.0517C111.469 35.5715 112.362 36.3287 112.362 37.5945C112.362 39.0524 110.882 40.1147 108.825 40.1147C106.678 40.1147 105.107 39.0524 104.926 37.4363ZM66.3989 41.9795L64.9071 37.5719H58.6912L57.1994 41.9795H54.5662L60.4543 25.6714H63.1892L69.0773 41.9795H66.3989ZM61.7652 28.3838L59.3354 35.5376H64.2629L61.833 28.3838H61.7652ZM82.1419 35.8428C82.1419 32.0341 80.085 29.5817 76.9545 29.5817C75.248 29.5817 73.7336 30.418 73.0442 31.7403H72.9877V29.706H70.6256V45.9915H73.0781V39.9678H73.1233C73.8579 41.324 75.248 42.1038 77.011 42.1038C80.0963 42.1038 82.1419 39.6401 82.1419 35.8428ZM76.3329 40.0243C78.322 40.0243 79.633 38.3856 79.633 35.8428C79.633 33.3112 78.322 31.6612 76.3329 31.6612C74.389 31.6612 73.0668 33.3451 73.0555 35.8428C73.0668 38.3517 74.3777 40.0243 76.3329 40.0243ZM95.6133 35.8428C95.6133 32.0341 93.5564 29.5817 90.4259 29.5817C88.7194 29.5817 87.205 30.418 86.5156 31.7403H86.4591V29.706H84.0971V45.9915H86.5495V39.9678H86.5947C87.3293 41.324 88.7194 42.1038 90.4824 42.1038C93.5678 42.1038 95.6133 39.6401 95.6133 35.8428ZM89.8043 40.0243C91.7934 40.0243 93.1044 38.3856 93.1044 35.8428C93.1044 33.3112 91.7934 31.6612 89.8043 31.6612C87.8605 31.6612 86.5382 33.3451 86.5269 35.8428C86.5382 38.3517 87.8492 40.0243 89.8043 40.0243ZM117.697 26.9485H120.138V29.706H122.488V31.6386H120.138V38.4986C120.138 39.561 120.612 40.0582 121.641 40.0582C121.901 40.0582 122.319 40.0243 122.477 40.0017V41.9343C122.206 42.0021 121.629 42.0586 121.098 42.0586C118.646 42.0586 117.697 41.1206 117.697 38.7473V31.6386H116.001V29.706H117.697V26.9485ZM124.003 35.8428C124.003 39.7079 126.263 42.1264 129.812 42.1264C133.36 42.1264 135.609 39.7079 135.609 35.8428C135.609 31.9776 133.349 29.5478 129.812 29.5478C126.274 29.5478 124.003 31.9889 124.003 35.8428ZM129.812 40.0921C131.891 40.0921 133.123 38.5212 133.123 35.8428C133.123 33.1643 131.891 31.5821 129.812 31.5821C127.732 31.5821 126.489 33.1756 126.489 35.8428C126.489 38.5212 127.732 40.0921 129.812 40.0921ZM139.915 29.706H137.576V41.9795H140.028V34.6561C140.028 32.927 141.045 31.8081 142.662 31.8081C143.023 31.8081 143.532 31.8872 143.735 31.9663V29.6721C143.543 29.6156 143.193 29.5817 142.922 29.5817C141.475 29.5817 140.345 30.4067 139.961 31.7742H139.915V29.706ZM150.46 31.5482C148.697 31.5482 147.42 32.8366 147.284 34.7239H153.511C153.455 32.814 152.245 31.5482 150.46 31.5482ZM155.839 38.3856H153.5C153.161 39.4593 152.042 40.1373 150.618 40.1373C148.606 40.1373 147.273 38.736 147.273 36.6113V36.4643H155.964V35.6054C155.964 31.8872 153.839 29.5478 150.471 29.5478C147.035 29.5478 144.798 32.0454 144.798 35.888C144.798 39.7305 147.013 42.1264 150.573 42.1264C153.33 42.1264 155.489 40.5894 155.839 38.3856Z" fill="white"/>
<path fill-rule="evenodd" clip-rule="evenodd" d="M34.5484 10C32.7963 10.0733 30.6733 11.1635 29.4169 12.6294C28.2874 13.9311 27.3014 16.0087 27.5672 18.0007C29.5234 18.1533 31.5166 17.0108 32.7342 15.5443C33.9494 14.075 34.7722 12.0361 34.5484 10ZM34.0531 44.6679C36.4271 44.6238 37.9306 42.5206 39.3842 40.4044C40.9769 38.0864 41.6802 35.839 41.7851 35.5038C41.7909 35.4851 41.7949 35.4724 41.7971 35.4659C41.796 35.4654 41.7931 35.4642 41.7884 35.4623C41.56 35.3699 37.1661 33.5903 37.1224 28.4461C37.0794 24.1981 40.4801 22.085 40.8545 21.8523C40.8676 21.8442 40.8769 21.8384 40.8823 21.8349C38.8354 18.8529 35.6482 18.4441 34.5125 18.3974C32.8537 18.2303 31.2444 18.8619 29.9294 19.378C29.0938 19.706 28.3771 19.9873 27.8421 19.9873C27.2467 19.9873 26.5104 19.6962 25.684 19.3695C24.6024 18.9418 23.3665 18.4533 22.0907 18.4766C19.1355 18.5207 16.4084 20.1899 14.8865 22.8282C11.8132 28.1405 14.0984 36.0123 17.0924 40.3197C18.558 42.4263 20.3006 44.7973 22.5924 44.712C23.6157 44.6711 24.3439 44.3622 25.097 44.0427C25.9675 43.6735 26.8711 43.2902 28.3019 43.2902C29.6646 43.2902 30.5264 43.6616 31.3554 44.0189C32.1482 44.3607 32.911 44.6894 34.0531 44.6679Z" fill="white"/>
</svg>
