<svg width="170" height="55" viewBox="0 0 170 55" fill="none" xmlns="http://www.w3.org/2000/svg">
<rect width="170" height="55" rx="6" fill="#262626"/>
<path d="M58.9639 18.8619C58.7022 19.2367 58.3362 19.5178 57.8659 19.7052C57.3992 19.8891 56.8547 19.981 56.2323 19.981C55.6029 19.981 55.0442 19.8343 54.5563 19.5408C54.0683 19.2438 53.69 18.823 53.4212 18.2785C53.156 17.7339 53.0199 17.1028 53.0128 16.385V15.7114C53.0128 14.548 53.2833 13.6464 53.8243 13.0063C54.3689 12.3663 55.1326 12.0463 56.1156 12.0463C56.9218 12.0463 57.5707 12.2532 58.0622 12.6669C58.5537 13.0771 58.8542 13.6605 58.9639 14.4172H57.9455C57.7546 13.3953 57.1464 12.8844 56.1209 12.8844C55.4385 12.8844 54.9205 13.1248 54.5669 13.6057C54.2168 14.083 54.04 14.7761 54.0365 15.6848V16.316C54.0365 17.1823 54.2345 17.8718 54.6305 18.3846C55.0266 18.8937 55.5623 19.1483 56.2376 19.1483C56.6195 19.1483 56.9537 19.1059 57.2401 19.021C57.5265 18.9362 57.7634 18.793 57.9508 18.5914V16.857H56.1634V16.0296H58.9639V18.8619Z" fill="white"/>
<path d="M65.2488 16.3054H61.902V19.0422H65.7898V19.875H60.8837V12.1524H65.7368V12.9904H61.902V15.4727H65.2488V16.3054Z" fill="white"/>
<path d="M72.7166 12.9904H70.2343V19.875H69.2213V12.9904H66.7443V12.1524H72.7166V12.9904Z" fill="white"/>
<path d="M77.8716 19.875H76.8533V12.1524H77.8716V19.875Z" fill="white"/>
<path d="M85.1325 12.9904H82.6503V19.875H81.6372V12.9904H79.1603V12.1524H85.1325V12.9904Z" fill="white"/>
<path d="M95.1354 16.263C95.1354 17.0197 95.0081 17.6809 94.7535 18.2467C94.4989 18.8089 94.1382 19.2385 93.6715 19.5355C93.2047 19.8325 92.6602 19.981 92.0379 19.981C91.4297 19.981 90.8904 19.8325 90.4202 19.5355C89.9499 19.235 89.5839 18.8089 89.3222 18.2573C89.0641 17.7021 88.9315 17.0603 88.9244 16.3319V15.775C88.9244 15.0325 89.0535 14.3765 89.3116 13.8072C89.5698 13.2379 89.934 12.803 90.4042 12.5025C90.8781 12.1984 91.4191 12.0463 92.0273 12.0463C92.6461 12.0463 93.1906 12.1966 93.6609 12.4972C94.1347 12.7942 94.4989 13.2273 94.7535 13.7966C95.0081 14.3624 95.1354 15.0218 95.1354 15.775V16.263ZM94.1223 15.7644C94.1223 14.8486 93.9384 14.1467 93.5707 13.6587C93.203 13.1672 92.6885 12.9215 92.0273 12.9215C91.3837 12.9215 90.8763 13.1672 90.505 13.6587C90.1373 14.1467 89.9481 14.8256 89.9375 15.6954V16.263C89.9375 17.1505 90.1231 17.8489 90.4944 18.358C90.8692 18.8637 91.3837 19.1165 92.0379 19.1165C92.6956 19.1165 93.2047 18.8778 93.5654 18.4005C93.9261 17.9196 94.1117 17.2318 94.1223 16.3372V15.7644Z" fill="white"/>
<path d="M102.815 19.875H101.792L97.9038 13.9239V19.875H96.8802V12.1524H97.9038L101.802 18.13V12.1524H102.815V19.875Z" fill="white"/>
<path fill-rule="evenodd" clip-rule="evenodd" d="M86.8559 30.8226C83.9082 30.8226 81.5189 33.0268 81.5189 36.0672C81.5189 39.0799 83.9238 41.3118 86.8559 41.3118C89.8035 41.3118 92.1928 39.0922 92.1928 36.0672C92.1928 33.0268 89.8035 30.8226 86.8559 30.8226ZM86.8559 39.2336C85.2432 39.2336 83.8552 37.9179 83.8552 36.0549C83.8552 34.1643 85.2464 32.8762 86.8559 32.8762C88.4685 32.8762 89.8565 34.1643 89.8565 36.0549C89.8597 37.9302 88.4685 39.2336 86.8559 39.2336ZM75.2119 30.8226C72.2642 30.8226 69.8749 33.0268 69.8749 36.0672C69.8749 39.0799 72.2798 41.3118 75.2119 41.3118C78.1595 41.3118 80.5488 39.0922 80.5488 36.0672C80.5488 33.0268 78.1564 30.8226 75.2119 30.8226ZM75.2119 39.2336C73.5992 39.2336 72.2112 37.9179 72.2112 36.0549C72.2112 34.1643 73.6024 32.8762 75.2119 32.8762C76.8245 32.8762 78.2125 34.1643 78.2125 36.0549C78.2125 37.9302 76.8245 39.2336 75.2119 39.2336ZM61.3564 32.4242V34.6438H66.7619C66.5966 35.8889 66.1786 36.8081 65.5392 37.4383C64.7469 38.2191 63.5242 39.0676 61.3688 39.0676C58.0469 39.0676 55.4486 36.4238 55.4486 33.1498C55.4486 29.8757 58.0469 27.2319 61.3688 27.2319C63.1624 27.2319 64.4693 27.9297 65.4394 28.8213L67.0364 27.2473C65.6889 25.9745 63.8954 25 61.3813 25C56.8241 25 53 28.6583 53 33.1375C53 37.6289 56.821 41.2749 61.3813 41.2749C63.8424 41.2749 65.6889 40.4818 67.1487 38.9877C68.6366 37.5213 69.1076 35.4524 69.1076 33.783C69.1076 33.2635 69.067 32.7962 68.9828 32.3996H61.3532C61.3564 32.3966 61.3564 32.4242 61.3564 32.4242ZM118.029 34.152C117.583 32.9745 116.236 30.8103 113.472 30.8103C110.733 30.8103 108.456 32.9346 108.456 36.0549C108.456 39 110.708 41.2995 113.737 41.2995C116.17 41.2995 117.586 39.8331 118.17 38.9723L116.364 37.7795C115.765 38.6557 114.932 39.2306 113.75 39.2306C112.555 39.2306 111.719 38.6957 111.164 37.6412L118.279 34.7361C118.279 34.7391 118.029 34.152 118.029 34.152ZM110.774 35.9043C110.718 33.8783 112.371 32.8485 113.553 32.8485C114.486 32.8485 115.262 33.3004 115.528 33.9583L110.774 35.9043ZM104.994 40.9859H107.33V25.578H104.994V40.9859ZM101.157 31.9877H101.073C100.546 31.3698 99.5448 30.8103 98.2659 30.8103C95.6115 30.8103 93.166 33.1129 93.166 36.0703C93.166 39.0154 95.599 41.2903 98.2659 41.2903C99.5292 41.2903 100.546 40.7277 101.073 40.0975H101.157V40.8507C101.157 42.852 100.072 43.9311 98.3221 43.9311C96.8904 43.9311 96.0014 42.9166 95.6396 42.0681L93.609 42.9043C94.1922 44.2877 95.7487 46 98.319 46C101.058 46 103.378 44.4106 103.378 40.534V31.1238H101.17V31.9877C101.173 31.9877 101.157 31.9877 101.157 31.9877ZM98.4749 39.2336C96.8623 39.2336 95.5148 37.9056 95.5148 36.0703C95.5148 34.2196 96.8623 32.8792 98.4749 32.8792C100.072 32.8792 101.31 34.235 101.31 36.0703C101.326 37.9056 100.075 39.2336 98.4749 39.2336ZM128.968 25.578H123.382V40.9859H125.718V35.1511H128.971C131.557 35.1511 134.099 33.3035 134.099 30.3707C134.099 27.4379 131.567 25.578 128.968 25.578ZM129.037 32.9991H125.715V27.7115H129.037C130.787 27.7115 131.776 29.1348 131.776 30.3553C131.776 31.5635 130.774 32.9991 129.037 32.9991ZM143.463 30.7949C141.766 30.7949 140.017 31.5358 139.293 33.1498L141.364 33.9982C141.81 33.1498 142.627 32.8608 143.491 32.8608C144.702 32.8608 145.924 33.574 145.952 34.8467V35.0097C145.534 34.776 144.617 34.4194 143.519 34.4194C141.283 34.4194 139.015 35.6245 139.015 37.8841C139.015 39.953 140.849 41.2811 142.892 41.2811C144.461 41.2811 145.325 40.5832 145.865 39.7747H145.949V40.9675H148.201V35.065C148.201 32.3166 146.13 30.7949 143.463 30.7949ZM143.17 39.2336C142.406 39.2336 141.336 38.8647 141.336 37.9179C141.336 36.7251 142.671 36.2732 143.809 36.2732C144.839 36.2732 145.325 36.4914 145.937 36.7927C145.768 38.1761 144.583 39.2213 143.17 39.2336ZM156.417 31.1238L153.735 37.8072H153.651L150.871 31.1238H148.357L152.528 40.4664L150.151 45.6588H152.584L159 31.1238H156.417ZM135.388 40.9859H137.724V25.578H135.388V40.9859Z" fill="white"/>
<path fill-rule="evenodd" clip-rule="evenodd" d="M12.77 14.1871V41.741C12.77 42.7 13.3245 43.5292 14.1299 43.9249L30.075 27.9593L14.1363 12C13.3274 12.3944 12.77 13.2256 12.77 14.1871ZM17.7037 43.0973L35.1315 33.0223L31.4486 29.3346L17.7037 43.0973ZM40.5488 26.0324C41.1284 26.4766 41.5024 27.1767 41.5024 27.964C41.5024 28.7396 41.1398 29.4302 40.575 29.8753L36.8731 32.0154L32.8221 27.9593L36.8704 23.9058L40.5488 26.0324ZM35.1288 22.899L17.7139 12.8316L31.4486 26.5839L35.1288 22.899Z" fill="white"/>
</svg>
