<svg width="45" height="45" viewBox="0 0 45 45" fill="none" xmlns="http://www.w3.org/2000/svg">
<path d="M28.5747 31.2184C28.5747 31.2184 27.8402 30.3414 27.2298 29.5662C29.9001 28.8119 30.9203 27.1388 30.9203 27.1388C30.0841 27.6895 29.2897 28.0771 28.5761 28.342C27.5573 28.77 26.5775 29.0559 25.62 29.219C23.6633 29.5857 21.8682 29.4839 20.3393 29.1981C19.1769 28.9736 18.1776 28.6474 17.3428 28.3211C16.8745 28.1371 16.3644 27.9126 15.8543 27.6281C15.793 27.5877 15.7316 27.5668 15.6703 27.5264C15.6299 27.5054 15.609 27.4859 15.5881 27.465C15.2215 27.2615 15.0167 27.1178 15.0167 27.1178C15.0167 27.1178 15.9951 28.7491 18.5846 29.5243C17.9727 30.2996 17.2187 31.217 17.2187 31.217C12.7129 31.0762 11 28.1189 11 28.1189C11 21.5519 13.9365 16.2286 13.9365 16.2286C16.8717 14.0243 19.6647 14.0856 19.6647 14.0856L19.8682 14.331C16.1985 15.3907 14.5066 17.0024 14.5066 17.0024C14.5066 17.0024 14.9554 16.757 15.7093 16.4113C17.8905 15.452 19.6243 15.1871 20.3379 15.1257C20.4605 15.1048 20.5622 15.0853 20.6849 15.0853C21.9281 14.9222 23.3343 14.8817 24.8033 15.0449C26.7406 15.2694 28.82 15.841 30.9398 17.0024C30.9398 17.0024 29.3287 15.4729 25.8625 14.4119L26.1482 14.0856C26.1482 14.0856 28.9412 14.0243 31.8778 16.2272C31.8778 16.2272 34.8143 21.5505 34.8143 28.1175C34.8129 28.1189 33.0806 31.0762 28.5747 31.2184ZM19.0947 21.6941C17.9323 21.6941 17.0153 22.7133 17.0153 23.9584C17.0153 25.2021 17.9532 26.2227 19.0947 26.2227C20.2556 26.2213 21.1741 25.2021 21.1741 23.957C21.1936 22.7134 20.2556 21.6941 19.0947 21.6941ZM26.5357 21.6941C25.3733 21.6941 24.4563 22.7133 24.4563 23.9584C24.4563 25.2021 25.3942 26.2227 26.5357 26.2227C27.698 26.2227 28.6151 25.2035 28.6151 23.9584C28.6151 22.7133 27.698 21.6941 26.5357 21.6941Z" fill="white"/>
</svg>
