<svg width="45" height="45" viewBox="0 0 45 45" fill="none" xmlns="http://www.w3.org/2000/svg">
<path d="M31.9389 15.9419C31.9278 15.8642 31.9168 15.7865 31.8946 15.7088C31.8613 15.6311 31.8169 15.5645 31.7725 15.4979C31.7392 15.4535 31.7281 15.398 31.6948 15.3647C31.6837 15.3536 31.6726 15.3536 31.6726 15.3425C31.6172 15.287 31.5395 15.2426 31.4729 15.1982C31.4174 15.1649 31.3731 15.1205 31.3176 15.0983C31.2621 15.0761 31.1955 15.065 31.1401 15.0539C31.0624 15.0317 30.9847 15.0095 30.896 15.0095C30.8849 14.9984 30.8738 14.9873 30.8627 14.9873H13.1096C13.0985 14.9873 13.0874 14.9984 13.0763 14.9984C12.9875 14.9984 12.9098 15.0317 12.8322 15.0428C12.7767 15.0539 12.7101 15.065 12.6546 15.0872C12.5992 15.1094 12.5548 15.1538 12.4993 15.1871C12.4327 15.2426 12.3662 15.2759 12.3107 15.3425C12.2996 15.3536 12.2885 15.3536 12.2774 15.3647C12.2441 15.398 12.233 15.4535 12.1997 15.4979C12.1553 15.5645 12.111 15.6311 12.0777 15.7088C12.0555 15.7865 12.0444 15.8642 12.0333 15.9419C12.0222 15.9974 12 16.0418 12 16.0973V29.2066C12 29.8171 12.4993 30.3166 13.1096 30.3166H30.8627C31.4729 30.3166 31.9722 29.8171 31.9722 29.2066V16.0973C31.9722 16.0418 31.95 15.9974 31.9389 15.9419ZM14.2191 28.0966V17.5736L21.9861 24.1005L29.7531 17.5736V28.0966H14.2191Z" fill="white"/>
</svg>
