<svg width="30" height="30" viewBox="0 0 30 30" fill="none" xmlns="http://www.w3.org/2000/svg">
<path d="M16.8526 12.2437C16.4105 12.6858 16.4105 13.3976 16.8526 13.8323C17.999 14.9862 17.999 16.8521 16.8526 18.006L12.5664 22.2922C11.4124 23.4462 9.54658 23.4462 8.3926 22.2922C7.24613 21.1383 7.24613 19.2724 8.3926 18.1184C8.83471 17.6763 8.83471 16.9645 8.3926 16.5299C7.9505 16.0952 7.23863 16.0877 6.80402 16.5299C4.78082 18.5531 4.78082 21.8576 6.80402 23.8808C7.81562 24.8924 9.14943 25.402 10.4832 25.402C11.8171 25.402 13.1434 24.8924 14.1625 23.8808L18.4486 19.5946C20.4718 17.5639 20.4718 14.2669 18.4486 12.2437C17.999 11.8016 17.2872 11.8016 16.8526 12.2437Z" fill="white"/>
<path d="M23.1919 6.11905C22.2103 5.13742 20.8989 4.5979 19.5127 4.5979C18.1264 4.5979 16.8151 5.13742 15.8334 6.11905L11.5548 10.4052C9.52407 12.4359 9.52407 15.733 11.5548 17.7562C11.7721 17.981 12.0568 18.0859 12.349 18.0859C12.6413 18.0859 12.926 17.9735 13.1433 17.7562C13.5854 17.3141 13.5854 16.6022 13.1433 16.1676C12.5888 15.6131 12.2816 14.8712 12.2816 14.0844C12.2816 13.2976 12.5888 12.5558 13.1433 12.0013L17.4295 7.71512C18.546 6.59862 20.4868 6.59862 21.6033 7.71512C22.1578 8.26963 22.465 9.01147 22.465 9.79827C22.465 10.5851 22.1578 11.3269 21.6033 11.8814C21.1612 12.3235 21.1612 13.0354 21.6033 13.47C22.0379 13.9121 22.7573 13.9121 23.1919 13.47C24.1735 12.4884 24.713 11.1845 24.713 9.79077C24.713 8.40451 24.1735 7.10067 23.1919 6.11905Z" fill="white"/>
</svg>
