<svg width="140" height="160" viewBox="0 0 140 160" fill="none" xmlns="http://www.w3.org/2000/svg">
<path d="M86.7623 17.815L91.8803 14.5212L94.4156 8.98156L97.7156 14.1145L103.257 16.675L98.1343 19.9596L95.5897 25.5041L92.299 20.3663L86.7623 17.815Z" stroke="#41435B" stroke-miterlimit="10" stroke-linecap="round" stroke-linejoin="round"/>
<path d="M11.0931 80.0471C12.7407 79.1906 13.3802 77.1571 12.5214 75.5051C11.6626 73.8532 9.63081 73.2083 7.98322 74.0648C6.33563 74.9213 5.69617 76.9548 6.55494 78.6068C7.41371 80.2587 9.44552 80.9036 11.0931 80.0471Z" stroke="#41435B" stroke-miterlimit="10" stroke-linecap="round" stroke-linejoin="round"/>
<path d="M127.138 57.6815L134.937 65.7996" stroke="#41435B" stroke-miterlimit="10" stroke-linecap="round" stroke-linejoin="round"/>
<path d="M126.999 65.6465L135.083 57.8439" stroke="#41435B" stroke-miterlimit="10" stroke-linecap="round" stroke-linejoin="round"/>
<path d="M51.1649 72.6909C51.1649 72.6909 32.5922 71.4986 25.3815 86.2233C18.1709 100.948 23.4769 130.931 56.8576 142.52C87.4214 153.122 105.976 118.709 105.976 118.709C105.976 118.709 113.927 126.221 121.288 117.657C127.669 110.223 114.372 104.893 118.253 93.1893C122.133 81.4856 112.215 78.515 109.258 80.498C109.258 80.498 109.799 73.7318 103.928 71.4832C98.7025 69.4855 96.0388 71.8084 96.0388 71.8084C96.0388 71.8084 94.0696 63.7907 86.6516 61.4903C80.5503 59.6079 76.0945 63.3431 76.0945 63.3431C76.0945 63.3431 67.3132 57.2953 59.8932 62.0555C52.4777 66.8018 51.1649 72.6909 51.1649 72.6909Z" fill="#41435B"/>
<path d="M51.1633 72.691C51.1633 72.691 75.7941 75.9524 84.0025 92.3948C91.9513 108.315 78.6203 113.674 68.9489 106.612C56.0897 97.2189 44.4659 99.9897 44.4659 99.9897" stroke="white" stroke-miterlimit="10" stroke-linecap="round" stroke-linejoin="round"/>
<path d="M61.3066 68.0628C61.3066 68.0628 61.5276 71.8177 60.0208 74.7236" stroke="white" stroke-miterlimit="10" stroke-linecap="round" stroke-linejoin="round"/>
<path d="M49.9642 99.6298C47.3191 103.338 45.7919 111.942 52.0245 115C58.3927 118.116 64.5465 109.862 65.6301 104.432" stroke="white" stroke-miterlimit="10" stroke-linecap="round" stroke-linejoin="round"/>
<path d="M76.101 63.3383C78.9166 66.7296 79.3231 75.9935 75.7475 82.6368" stroke="white" stroke-miterlimit="10" stroke-linecap="round" stroke-linejoin="round"/>
<path d="M59.8968 113.721C60.0486 117.501 62.2025 121.869 67.7335 121.867C74.4487 121.87 78.1584 114.36 80.7067 109.318" stroke="white" stroke-miterlimit="10" stroke-linecap="round" stroke-linejoin="round"/>
<path d="M96.0472 71.8036C96.0472 71.8036 97.8556 80.4795 86.3466 99.7372" stroke="white" stroke-miterlimit="10" stroke-linecap="round" stroke-linejoin="round"/>
<path d="M79.5849 111.483C78.4996 114.885 82.9497 123.513 91.6347 119.139C100.32 114.765 109.738 94.8819 109.254 80.4981" stroke="white" stroke-miterlimit="10" stroke-linecap="round" stroke-linejoin="round"/>
<path d="M105.983 118.705C105.983 118.705 101.066 114.623 101.772 107.725" stroke="white" stroke-miterlimit="10" stroke-linecap="round" stroke-linejoin="round"/>
<path d="M44.7764 54.9381C44.7764 54.9381 50.6805 67.7352 60.0257 74.7329" stroke="white" stroke-miterlimit="10" stroke-linecap="round" stroke-linejoin="round"/>
<path d="M43.1059 55.3253C25.2966 59.7638 8.10992 41.5742 14.3649 31.6031C18.4624 25.0637 26.0107 29.5948 28.3644 33.9649C26.8502 25.1126 31.9349 21.2146 35.3384 20.6297C43.72 19.2042 46.64 29.6359 46.64 29.6359C47.7219 20.5129 60.354 17.2296 62.7864 29.8731C64.8714 40.6333 56.0687 52.093 43.1059 55.3253Z" stroke="white" stroke-miterlimit="10" stroke-linecap="round" stroke-linejoin="round"/>
<path d="M26.6112 53.4049C31.4083 44.8367 49.5693 39.7698 59.035 44.8168" stroke="white" stroke-miterlimit="10" stroke-linecap="round" stroke-linejoin="round"/>
</svg>
