<svg width="150" height="160" viewBox="0 0 150 160" fill="none" xmlns="http://www.w3.org/2000/svg">
<path d="M126.972 90.6338L132.508 89.4808L136.54 85.5366L137.707 91.035L141.669 95.0453L136.133 96.2086L132.101 100.153L130.945 94.6437L126.972 90.6338Z" stroke="#41435B" stroke-miterlimit="10" stroke-linecap="round" stroke-linejoin="round"/>
<path d="M42.3496 27.8957L54.6237 29.7065" stroke="#41435B" stroke-miterlimit="10" stroke-linecap="round" stroke-linejoin="round"/>
<path d="M47.5674 34.9076L49.4047 22.6845" stroke="#41435B" stroke-miterlimit="10" stroke-linecap="round" stroke-linejoin="round"/>
<path d="M99.1747 89.2287C103.382 88.425 107.336 91.454 108.265 95.608C111.899 111.987 104.157 141.259 69.7639 147.349C32.8499 153.878 25.0169 130.968 19.3462 116.417C13.6755 101.867 -0.205474 88.7533 2.63979 80.0628C5.83887 70.3054 13.0058 75.9939 13.0058 75.9939C13.0058 75.9939 8.38994 68.3779 11.8839 63.419C15.3779 58.4602 20.5007 60.7834 20.5007 60.7834C20.5007 60.7834 15.996 49.2851 25.0699 49.1632C34.1438 49.0412 49.1695 64.9118 51.0634 82.4643C58.958 63.2336 76.2285 59.8853 87.8307 65.41C96.8687 69.72 112.408 85.1915 99.7574 89.1446C89.105 92.4707 85.0223 76.7855 74.1772 82.3614C63.3422 87.9347 63.4373 115.575 83.7614 111.255C97.9128 108.24 87.8919 99.5644 96.0221 90.9122C96.9314 89.9506 98.0222 89.4472 99.1747 89.2287Z" fill="#41435B"/>
<path d="M39.693 89.5802C39.693 89.5802 32.3728 66.9047 20.5 60.7834" stroke="white" stroke-miterlimit="10" stroke-linecap="round" stroke-linejoin="round"/>
<path d="M29.404 101.273C29.404 101.273 23.2062 83.7651 13.0059 75.9939" stroke="white" stroke-miterlimit="10" stroke-linecap="round" stroke-linejoin="round"/>
<path d="M119.078 35.5184C109.062 34.5705 113.313 47.4432 121.035 41.1278C133.654 30.8275 118.721 20.5693 105.349 37.6958" stroke="#41435B" stroke-miterlimit="10" stroke-linecap="round" stroke-linejoin="round"/>
</svg>
