<svg width="30" height="30" viewBox="0 0 30 30" fill="none" xmlns="http://www.w3.org/2000/svg">
<path fill-rule="evenodd" clip-rule="evenodd" d="M26.9052 5.4439C26.1903 5.90202 24.5488 6.56773 23.7393 6.56773V6.56909C22.8149 5.60308 21.5136 5 20.0703 5C17.2672 5 14.9942 7.27391 14.9942 10.0771C14.9942 10.4665 15.0393 10.8464 15.1227 11.2107H15.1218C11.3194 11.1109 7.16082 9.20431 4.65733 5.94113C3.11811 8.60643 4.45009 11.5707 6.19682 12.6507C5.5989 12.6959 4.49821 12.5818 3.98013 12.0761C3.9454 13.8451 4.79567 16.1891 7.89598 17.0394C7.29888 17.3608 6.24193 17.2686 5.78235 17.2002C5.94366 18.6935 8.03404 20.6458 10.3199 20.6458C9.50519 21.5886 6.43987 23.2985 3 22.7545C5.33617 24.1765 8.05892 25 10.9408 25C19.1304 25 25.4904 18.3601 25.1481 10.169C25.1467 10.1599 25.1467 10.1509 25.1459 10.1411C25.1467 10.12 25.1481 10.0989 25.1481 10.0771C25.1481 10.0516 25.1459 10.0276 25.1451 10.0029C25.8906 9.49286 26.891 8.59056 27.6057 7.40301C27.1912 7.63138 25.9478 8.08868 24.7908 8.20219C25.5333 7.80123 26.6335 6.48814 26.9052 5.4439Z" fill="white"/>
</svg>
