<svg width="30" height="30" viewBox="0 0 30 30" fill="none" xmlns="http://www.w3.org/2000/svg">
<circle cx="15" cy="15" r="15" fill="white"/>
<path fill-rule="evenodd" clip-rule="evenodd" d="M15 6C12.5557 6 12.2493 6.01036 11.2893 6.05416C10.3314 6.09785 9.67716 6.25001 9.10466 6.47247C8.51283 6.70247 8.01092 7.01021 7.51058 7.51055C7.01025 8.01092 6.70251 8.51283 6.47251 9.10466C6.25001 9.67712 6.09789 10.3314 6.05416 11.2893C6.01036 12.2493 6 12.5557 6 15C6 17.4443 6.01036 17.7507 6.05416 18.7107C6.09789 19.6686 6.25001 20.3229 6.47251 20.8953C6.70251 21.4872 7.01025 21.9891 7.51058 22.4895C8.01092 22.9898 8.51283 23.2975 9.10466 23.5275C9.67716 23.75 10.3314 23.9021 11.2893 23.9458C12.2493 23.9897 12.5557 24 15 24C17.4443 24 17.7507 23.9897 18.7107 23.9458C19.6687 23.9021 20.3229 23.75 20.8954 23.5275C21.4872 23.2975 21.9891 22.9898 22.4895 22.4895C22.9898 21.9891 23.2975 21.4872 23.5275 20.8953C23.75 20.3229 23.9021 19.6686 23.9459 18.7107C23.9897 17.7507 24 17.4443 24 15C24 12.5557 23.9897 12.2493 23.9459 11.2893C23.9021 10.3314 23.75 9.67712 23.5275 9.10466C23.2975 8.51283 22.9898 8.01092 22.4895 7.51055C21.9891 7.01021 21.4872 6.70247 20.8954 6.47247C20.3229 6.25001 19.6687 6.09785 18.7107 6.05416C17.7507 6.01036 17.4443 6 15 6ZM15.0004 7.62141C17.4036 7.62141 17.6882 7.6306 18.6372 7.67389C19.5147 7.71391 19.9912 7.86052 20.3084 7.98378C20.7285 8.14704 21.0283 8.34207 21.3432 8.65703C21.6581 8.97195 21.8532 9.27176 22.0164 9.69185C22.1397 10.009 22.2863 10.4855 22.3264 11.363C22.3697 12.312 22.3788 12.5967 22.3788 14.9998C22.3788 17.4029 22.3697 17.6876 22.3264 18.6366C22.2863 19.5141 22.1397 19.9906 22.0164 20.3077C21.8532 20.7278 21.6581 21.0276 21.3432 21.3426C21.0283 21.6575 20.7285 21.8525 20.3084 22.0158C19.9912 22.1391 19.5147 22.2857 18.6372 22.3257C17.6883 22.369 17.4037 22.3782 15.0004 22.3782C12.5972 22.3782 12.3126 22.369 11.3637 22.3257C10.4862 22.2857 10.0096 22.1391 9.69247 22.0158C9.27241 21.8525 8.97257 21.6575 8.65765 21.3426C8.34273 21.0276 8.14767 20.7278 7.9844 20.3077C7.86118 19.9906 7.71456 19.5141 7.67452 18.6366C7.63122 17.6876 7.62207 17.4029 7.62207 14.9998C7.62207 12.5967 7.63122 12.312 7.67452 11.363C7.71456 10.4855 7.86118 10.009 7.9844 9.69185C8.14767 9.27176 8.34273 8.97195 8.65765 8.65703C8.97257 8.34207 9.27241 8.14704 9.69247 7.98378C10.0096 7.86052 10.4862 7.71391 11.3636 7.67389C12.3127 7.6306 12.5973 7.62141 15.0004 7.62141ZM14.9308 18.1055C13.2537 18.1055 11.8941 16.746 11.8941 15.0689C11.8941 13.3917 13.2537 12.0322 14.9308 12.0322C16.6079 12.0322 17.9675 13.3917 17.9675 15.0689C17.9675 16.746 16.6079 18.1055 14.9308 18.1055ZM14.9309 10.3908C12.3473 10.3908 10.2528 12.4853 10.2528 15.069C10.2528 17.6526 12.3473 19.7471 14.9309 19.7471C17.5146 19.7471 19.6091 17.6526 19.6091 15.069C19.6091 12.4853 17.5146 10.3908 14.9309 10.3908ZM20.8234 10.2136C20.8234 10.7862 20.3591 11.2504 19.7865 11.2504C19.2138 11.2504 18.7496 10.7862 18.7496 10.2136C18.7496 9.64088 19.2138 9.17666 19.7865 9.17666C20.3591 9.17666 20.8234 9.64088 20.8234 10.2136Z" fill="black"/>
</svg>
