<svg width="50" height="50" viewBox="0 0 50 50" fill="none" xmlns="http://www.w3.org/2000/svg">
<circle cx="25" cy="25" r="25" fill="white"/>
<path fill-rule="evenodd" clip-rule="evenodd" d="M19.2655 33.9641H14.7881V20.4937H19.2655V33.9641Z" fill="#191919"/>
<path fill-rule="evenodd" clip-rule="evenodd" d="M17.0268 18.6544H16.9977C15.4952 18.6544 14.5234 17.6202 14.5234 16.3275C14.5234 15.0057 15.5249 14 17.0566 14C18.5882 14 19.5308 15.0057 19.56 16.3275C19.56 17.6202 18.5882 18.6544 17.0268 18.6544Z" fill="#191919"/>
<path fill-rule="evenodd" clip-rule="evenodd" d="M35.41 33.9643H30.9331V26.758C30.9331 24.9469 30.2848 23.7118 28.6648 23.7118C27.428 23.7118 26.6913 24.5449 26.3676 25.3492C26.2492 25.637 26.2203 26.0393 26.2203 26.4418V33.9643H21.7432C21.7432 33.9643 21.8018 21.7576 21.7432 20.4939H26.2203V22.4012C26.8153 21.4833 27.8799 20.1777 30.2554 20.1777C33.2011 20.1777 35.41 22.103 35.41 26.2404V33.9643Z" fill="#191919"/>
</svg>
