<svg width="110" height="160" viewBox="0 0 110 160" fill="none" xmlns="http://www.w3.org/2000/svg">
<path d="M45.5495 11.8668C47.3829 11.0085 48.1777 8.83599 47.3249 7.01433C46.4721 5.19268 44.2945 4.41173 42.4612 5.27004C40.6278 6.12835 39.833 8.30088 40.6858 10.1225C41.5386 11.9442 43.7162 12.7251 45.5495 11.8668Z" stroke="#41435B" stroke-miterlimit="10" stroke-linecap="round" stroke-linejoin="round"/>
<path d="M84.4389 82.5704C83.0679 78.3867 75.033 75.3396 69.1012 80.7168C69.5157 70.3758 59.8178 66.9504 59.8178 66.9504C59.8178 66.9504 61.2094 52.8467 56.0391 41.1871C50.4814 28.6291 38.1586 31.06 36.1716 37.9947C31.9008 30.5302 18.3658 32.1955 21.1786 47.5589C23.9824 62.9266 40.9217 75.0698 40.9217 75.0698C40.9217 75.0698 38.6642 81.2607 39.7567 89.7284C30.6221 91.4379 20.9372 98.1534 19.1792 111.569C16.9208 128.866 34.2081 151.842 60.5022 149.767C102.913 146.426 106.857 109.093 104.069 92.8812C101.298 76.6607 88.4066 78.256 84.4389 82.5704ZM43.8491 115.664C40.2106 117.39 36.6327 114.129 37.0462 110.465C37.4598 106.801 44.0927 106.285 44.0927 106.285C44.0927 106.285 48.7881 113.33 43.8491 115.664Z" fill="#41435B"/>
<path d="M36.1668 37.9858C39.2636 43.6532 44.3096 59.8551 40.9212 75.0699" stroke="white" stroke-miterlimit="10" stroke-linecap="round" stroke-linejoin="round"/>
<path d="M39.7569 89.7286C39.7569 89.7286 57.0361 87.6766 64.4012 95.356C71.7664 103.035 61.888 113.411 50.5599 108.138C45.724 105.885 44.102 106.281 44.102 106.281" stroke="white" stroke-miterlimit="10" stroke-linecap="round" stroke-linejoin="round"/>
<path d="M59.8139 66.9416C59.3617 74.9756 54.376 85.7601 57.5178 91.2632" stroke="white" stroke-miterlimit="10" stroke-linecap="round" stroke-linejoin="round"/>
<path d="M62.9865 94.0897C63.425 90.8106 66.3909 83.693 69.4965 80.1899" stroke="white" stroke-miterlimit="10" stroke-linecap="round" stroke-linejoin="round"/>
<path d="M57.9057 109.524C56.979 113.087 58.7255 118.428 63.0036 119.94C67.2726 121.456 74.7693 117.219 77.3801 104.583C80.2872 90.5186 84.4387 82.5706 84.4387 82.5706" stroke="white" stroke-miterlimit="10" stroke-linecap="round" stroke-linejoin="round"/>
<path d="M77.521 103.911C77.8641 108.741 79.6195 113.77 83.7479 114.228C89.7189 114.903 96.9801 109.002 95.7602 93.7966" stroke="white" stroke-miterlimit="10" stroke-linecap="round" stroke-linejoin="round"/>
<path d="M87.0538 42.2117L92.7801 38.8588L95.8098 32.9673L99.1526 38.6628L105.053 41.6512L99.3139 44.9993L96.2842 50.8908L92.9547 45.2001L87.0538 42.2117Z" stroke="#41435B" stroke-miterlimit="10" stroke-linecap="round" stroke-linejoin="round"/>
<path d="M2.85547 91.314L13.9823 86.2148" stroke="#41435B" stroke-miterlimit="10" stroke-linecap="round" stroke-linejoin="round"/>
<path d="M10.9258 94.3144L5.90674 83.2069" stroke="#41435B" stroke-miterlimit="10" stroke-linecap="round" stroke-linejoin="round"/>
</svg>
