<svg width="300" height="60" viewBox="0 0 300 60" fill="none" xmlns="http://www.w3.org/2000/svg">
<path d="M97.1267 25.5272C97.1267 29.7165 93.8445 32.4997 89.5313 32.4997H83.0615V39.7854H79.6554V18.5547H89.6296C93.8773 18.5547 97.1267 21.3379 97.1267 25.5272ZM93.6259 25.5891C93.6259 23.2759 91.6879 21.7422 89.3746 21.7422H83.0615V29.3704H89.3746C91.6879 29.3704 93.6259 27.8695 93.6259 25.5891Z" fill="white"/>
<path d="M100.849 33.2464V23.6183H104.226V33.3411C104.226 33.3411 104.041 37.3119 108.197 37.3119C112.354 37.3119 112.168 33.3411 112.168 33.3411V23.6183H115.545V33.2464C115.545 40.1242 110.23 40.2808 108.197 40.2808C106.164 40.2808 100.849 40.1242 100.849 33.2464Z" fill="white"/>
<path d="M144.958 29.8403V39.7818H141.581V30.1828C141.581 27.589 140.644 26.1173 138.422 26.1173C136.389 26.1173 134.357 27.651 134.357 30.6818V39.7781H130.98V30.1828C130.98 27.589 130.044 26.1173 127.821 26.1173C125.945 26.1173 124.04 27.4287 123.789 30.0553V39.7781H120.412V23.6183H123.789V25.5563C123.975 25.1191 125.071 23.1192 128.32 23.1192C130.601 23.1192 132.386 24.0263 133.417 25.7749C134.167 24.3687 135.854 23.1192 138.918 23.1192C142.553 23.1192 144.958 25.3996 144.958 29.8403Z" fill="white"/>
<path d="M148.4 31.7164C148.4 26.9952 151.901 23.152 156.841 23.152C159.187 23.152 161.154 24.0591 162.28 25.1847V23.6219H165.624V39.7854H162.218L162.247 38.1279C161.183 39.2207 159.464 40.2553 156.837 40.2553C151.901 40.2517 148.4 36.4376 148.4 31.7164ZM162.469 31.6836C162.469 28.1828 160.094 26.1501 157.092 26.1501C154.061 26.1501 151.777 28.6199 151.777 31.6836C151.777 34.7473 154.058 37.2463 157.092 37.2463C160.09 37.2499 162.469 35.2172 162.469 31.6836Z" fill="white"/>
<path d="M195.856 33.3412C195.856 37.7163 192.854 39.7818 188.352 39.7818H179.099V18.5547H187.791C192.384 18.5547 194.698 20.2413 194.698 24.0263C194.698 26.4342 193.23 27.9023 191.164 28.2448C194.042 28.4961 195.856 30.558 195.856 33.3412ZM182.509 21.7422V27.0244H187.168C189.918 27.0244 191.357 26.4306 191.357 24.274C191.233 21.8989 189.638 21.7422 187.357 21.7422H182.509ZM192.261 33.2792C192.261 31.1226 190.884 30.0589 188.104 30.0589H182.509V36.5943H188.104C190.884 36.5906 192.261 35.4977 192.261 33.2792Z" fill="white"/>
<path d="M199.608 23.5891H202.985V26.7147C203.735 24.7439 206.173 23.1192 209.611 23.1192V25.9024C205.517 25.9024 203.047 28.2484 202.985 31.6873V39.7854H199.608V23.5891Z" fill="white"/>
<path d="M211.174 31.7164C211.174 26.9952 215.112 23.152 220.023 23.152C224.93 23.152 228.871 26.9989 228.871 31.7164C228.871 36.4376 224.933 40.2517 220.023 40.2517C215.112 40.2517 211.174 36.4376 211.174 31.7164ZM225.618 31.7164C225.618 28.6527 223.21 26.1829 220.023 26.1829C216.835 26.1829 214.427 28.6527 214.427 31.7164C214.427 34.7473 216.835 37.2172 220.023 37.2172C223.21 37.2172 225.618 34.7473 225.618 31.7164Z" fill="white"/>
<path d="M230.435 23.6183H233.968L237.189 32.9332L241.127 22.959L245.407 32.966L248.376 23.6183H251.91L245.658 41.0641L241.094 30.2775L236.686 41.0641L230.435 23.6183Z" fill="white"/>
<path d="M253.162 38.718V35.403C253.162 35.403 255.29 37.2463 257.913 37.2463C260.069 37.2463 261.162 36.5906 261.162 35.5268C261.162 34.3393 260.069 33.6216 258.16 32.5579C256.037 31.3703 254.095 30.3394 254.095 27.6509C254.095 24.9005 256.503 23.1483 259.439 23.1483C261.41 23.1483 262.845 23.7421 263.628 24.212V27.5271C262.911 26.8386 261.472 26.1501 259.847 26.1501C258.033 26.1501 257.282 26.7438 257.282 27.589C257.282 28.6199 258.157 28.966 260.94 30.5907C263.096 31.8402 264.317 32.904 264.317 35.3411C264.317 37.8109 262.474 40.248 257.938 40.248C255.195 40.2517 253.162 38.718 253.162 38.718Z" fill="white"/>
<path d="M267.009 31.6836C267.009 26.8386 270.728 23.1483 275.73 23.1483C280.418 23.1483 283.14 27.0243 283.14 30.9332V32.496H270.229C270.604 34.9986 272.357 37.2463 276.014 37.2463C279.985 37.2463 282.393 35.5596 282.422 35.5596V38.5905C282.422 38.5905 280.67 40.248 275.952 40.248C270.262 40.2517 267.009 36.3428 267.009 31.6836ZM279.766 29.8694C279.642 28.6199 278.83 25.8987 275.296 25.8987C271.763 25.8987 270.575 28.6199 270.389 29.8694H279.766Z" fill="white"/>
<path d="M286.895 23.5891H290.272V26.7147C291.023 24.7439 293.46 23.1192 296.899 23.1192V25.9024C292.804 25.9024 290.334 28.2484 290.272 31.6873V39.7854H286.895V23.5891Z" fill="white"/>
<path d="M57.4994 26.773C57.6925 22.9881 54.7053 20.704 51.8274 18.6348C49.9623 7.39651 32.4764 7.56408 27.8281 7.9903C18.6808 1.93947 8.42611 1.67718 7.4061 2.16169C7.17295 2.98862 7.33324 13.3636 10.2548 19.3962C10.2548 19.3962 5.72673 22.0045 4 27.9606C7.73031 22.5036 14.8667 20.7295 14.8667 20.7295C12.4151 15.3854 11.202 6.402 11.5153 6.43843C20.7136 7.4038 27.0959 11.7388 27.0959 11.7388C45.4524 10.9957 47.7001 17.4909 48.1153 20.7768C53.6926 24.6091 54.1844 26.4743 53.7764 27.9424C53.7655 27.9606 53.7655 27.9897 53.7582 28.008C53.729 28.0917 53.7035 28.1755 53.6744 28.2593H53.6853C52.2828 32.751 49.5179 36.842 49.5652 37.0095C50.0934 38.8856 50.6034 45.92 43.1137 46.328C41.9152 35.3957 27.023 44.6195 25.1943 52C29.2962 46.43 40.9789 40.6051 39.9953 50.1057C54.3702 50.1786 54.3811 40.9074 53.5177 37.7636C56.7963 32.3321 57.565 27.6364 57.4994 26.773Z" fill="white"/>
<path d="M15.2929 24.6201C11.5698 25.6328 8.20382 27.6655 4.56458 32.4231H7.8031C6.16016 35.3265 5.43522 37.7126 5.72301 42.0367C7.51531 36.6452 11.7447 31.9386 15.5151 29.0061H10.9323L15.2929 24.6201Z" fill="white"/>
</svg>
