<svg width="150" height="170" viewBox="0 0 150 170" fill="none" xmlns="http://www.w3.org/2000/svg">
<path d="M19.8056 32.8177L15.4741 16.2783L33.8747 26.8788L54.4834 21.2782L58.2819 5.47485C58.2819 5.47485 118.501 62.4279 114.77 156.326H24.078C24.078 156.326 9.94122 148.653 23.8072 84.3309C12.8684 72.1654 12.4708 72.563 12.733 65.7611C13.0038 58.9593 19.8056 32.8177 19.8056 32.8177Z" stroke="#FF7917" stroke-width="1.5" stroke-miterlimit="10" stroke-linecap="round" stroke-linejoin="round"/>
<path d="M114.77 156.326C114.77 156.326 140.911 147.054 131.707 119.245C122.502 91.4373 150.665 90.3206 145.319 79.111C141.571 71.2516 127.417 76.7591 120.632 91.2343C109.693 114.576 125.057 126.792 114.719 138.501" stroke="#FF7917" stroke-width="1.5" stroke-miterlimit="10" stroke-linecap="round" stroke-linejoin="round"/>
<path d="M56.6992 12.0823L64.364 20.2631" stroke="#FF7917" stroke-width="1.5" stroke-miterlimit="10" stroke-linecap="round" stroke-linejoin="round"/>
<path d="M17.4531 23.8416L26.2347 29.5605" stroke="#FF7917" stroke-width="1.5" stroke-miterlimit="10" stroke-linecap="round" stroke-linejoin="round"/>
<path d="M41.3779 34.7042L42.7654 40.1779L50.1256 34.3743L41.3779 34.7042Z" fill="#FF7917" stroke="#FF7917" stroke-width="1.5" stroke-miterlimit="10" stroke-linecap="round" stroke-linejoin="round"/>
<path d="M34.6184 38.4351L34.6269 43.2573L27.3174 40.0086L34.6184 38.4351Z" fill="#FF7917" stroke="#FF7917" stroke-width="1.5" stroke-miterlimit="10" stroke-linecap="round" stroke-linejoin="round"/>
<path d="M41.7926 48.2828L42.0972 50.7446C42.6725 55.3131 46.6064 58.9847 51.2002 58.6548C56.0986 58.2995 59.6433 53.9256 59.0427 49.1119L58.6789 46.1762C58.5858 45.4148 57.8921 44.8818 57.1392 44.9749L42.994 46.743C42.241 46.8361 41.6996 47.5214 41.7926 48.2828Z" fill="white"/>
<path d="M20.3128 50.7698L20.6089 53.1217C21.1588 57.504 24.9235 61.0149 29.3227 60.6934C34.0181 60.355 37.4105 56.1673 36.8353 51.5566L36.4884 48.7478C36.3953 48.0203 35.7355 47.5042 35.0079 47.5973L21.4718 49.2893C20.7442 49.3739 20.2282 50.0422 20.3128 50.7698Z" fill="white"/>
<path d="M31.9287 64.7292C32.6647 64.027 35.8796 62.4789 39.2805 63.9932L35.778 67.1319L31.9287 64.7292Z" fill="#FF7917" stroke="#FF7917" stroke-width="1.5" stroke-miterlimit="10" stroke-linecap="round" stroke-linejoin="round"/>
<path d="M39.6436 73.8658L35.7773 67.1316" stroke="#FF7917" stroke-width="1.5" stroke-miterlimit="10" stroke-linecap="round" stroke-linejoin="round"/>
<path d="M55.743 45.1104L49.5418 45.8887C49.2796 46.4301 49.1104 47.0308 49.1104 47.6822C49.1104 49.8649 50.8024 51.633 52.892 51.633C54.9816 51.633 56.6736 49.8649 56.6736 47.6822C56.6736 46.6924 56.3098 45.8041 55.743 45.1104Z" fill="#1AACFF"/>
<path d="M35.0926 50.423C35.0926 49.374 34.695 48.4265 34.052 47.7158L28.0454 48.4688C27.7239 49.044 27.5293 49.7124 27.5293 50.423C27.5293 52.6057 29.2213 54.3739 31.3109 54.3739C33.3921 54.3654 35.0926 52.5973 35.0926 50.423Z" fill="#1AACFF"/>
<path d="M63.8135 58.6715C63.8135 58.6715 89.2951 56.1927 102.298 63.3415" stroke="#FF7917" stroke-width="1.5" stroke-miterlimit="10" stroke-linecap="round" stroke-linejoin="round"/>
<path d="M65.2441 64.8643C65.2441 64.8643 82.9003 65.2703 91.2165 71.2516" stroke="#FF7917" stroke-width="1.5" stroke-miterlimit="10" stroke-linecap="round" stroke-linejoin="round"/>
<path d="M19.6697 68.0623C14.4668 70.5664 7.40265 77.2329 5 80.1686" stroke="#FF7917" stroke-width="1.5" stroke-miterlimit="10" stroke-linecap="round" stroke-linejoin="round"/>
<path d="M21.9034 73.0874C18.0541 76.886 13.824 84.9399 12.5889 88.2647" stroke="#FF7917" stroke-width="1.5" stroke-miterlimit="10" stroke-linecap="round" stroke-linejoin="round"/>
<path d="M28.5273 122.579C28.5273 122.579 29.0772 156.25 41.0228 156.25C45.8197 156.25 47.021 152.189 46.8856 143.247" stroke="#FF7917" stroke-width="1.5" stroke-miterlimit="10" stroke-linecap="round" stroke-linejoin="round"/>
<path d="M46.6143 114.584C46.6143 114.584 43.5433 154.795 53.1539 156.326C62.7561 157.857 66.9607 138.788 66.2924 127.384" stroke="#FF7917" stroke-width="1.5" stroke-miterlimit="10" stroke-linecap="round" stroke-linejoin="round"/>
<path d="M75.1593 131.919C75.1593 131.919 64.0851 142.984 75.8277 156.258" stroke="#FF7917" stroke-width="1.5" stroke-miterlimit="10" stroke-linecap="round" stroke-linejoin="round"/>
</svg>
