<svg width="180" height="230" viewBox="0 0 180 230" fill="none" xmlns="http://www.w3.org/2000/svg">
<path d="M151.46 47.1683C147.28 39.6183 140.49 34.0583 129.79 32.0783C113.29 29.0183 65.8803 27.0183 65.9503 60.1083C66.0103 83.5783 62.2603 86.7883 61.2603 87.2283C45.5203 76.0883 34.0503 92.6383 40.9703 112.018C47.0403 129.028 65.4603 121.618 65.4603 121.618C65.4603 121.618 64.4303 125.528 66.5403 130.888C66.5603 130.928 67.1503 131.318 67.1703 131.358C71.9603 147.398 83.8703 156.848 70.9103 176.138C50.4403 206.618 97.7103 222.168 97.7103 222.168H44.2803C29.3803 219.658 4.22029 194.348 28.2103 160.378C47.8303 132.598 32.5503 113.818 31.4303 68.5983C29.9803 10.1183 91.3803 -8.18167 126.3 14.2983C135.05 19.9583 145.76 31.6783 151.46 47.1683Z" fill="#41435B" stroke="#41435B" stroke-miterlimit="10" stroke-linecap="round" stroke-linejoin="round"/>
<path d="M66.0802 92.0684C51.4502 73.0384 32.7502 88.5884 40.5402 110.868C46.4902 127.908 65.4702 121.618 65.4702 121.618C65.4702 121.618 68.7602 159.738 109.58 162.808C137.32 164.898 152.28 136.628 154.21 116.078C156.63 90.3484 167.41 38.9884 129.82 32.0584C113.32 29.0184 65.9002 27.0184 65.9702 60.0984C66.0302 87.2184 61.2702 87.1084 61.2702 87.1084" stroke="#41435B" stroke-width="2" stroke-miterlimit="10" stroke-linecap="round" stroke-linejoin="round"/>
<path d="M124.15 99.6583C124.15 99.6583 130 109.998 128.51 114.748C127.02 119.498 117.5 117.378 117.5 117.378" stroke="#41435B" stroke-width="2" stroke-miterlimit="10" stroke-linecap="round" stroke-linejoin="round"/>
<path d="M129.56 96.9183C132.13 94.1383 139.7 87.9983 153.1 93.5583C153.62 93.7683 153.9 94.3783 153.72 94.9083C149.87 106.128 138.84 106.248 129.73 99.1083C129.05 98.5783 128.97 97.5583 129.56 96.9183Z" fill="white"/>
<path d="M106.21 128.518C111.5 130.178 114.3 124.008 118.44 128.678C122.95 124.918 123.7 128.588 127.43 128.998C121.05 132.438 114.65 132.168 106.21 128.518Z" fill="#41435B" stroke="#41435B" stroke-width="2" stroke-miterlimit="10" stroke-linecap="round" stroke-linejoin="round"/>
<path d="M97.4502 125.078C97.4502 125.078 90.5202 127.228 92.4902 133.288" stroke="#41435B" stroke-width="2" stroke-miterlimit="10" stroke-linecap="round" stroke-linejoin="round"/>
<path d="M108.221 137.938C108.221 137.938 116.691 142.388 125.241 138.108" stroke="#41435B" stroke-width="2" stroke-miterlimit="10" stroke-linecap="round" stroke-linejoin="round"/>
<path d="M123.7 130.458C123.7 130.458 127.28 129.458 129.74 127.628" stroke="#41435B" stroke-width="2" stroke-miterlimit="10" stroke-linecap="round" stroke-linejoin="round"/>
<path d="M108.81 129.178C108.81 129.178 106.61 128.728 103.37 127.628" stroke="#41435B" stroke-width="2" stroke-miterlimit="10" stroke-linecap="round" stroke-linejoin="round"/>
<path d="M148.93 92.0983C137.78 89.2283 131.47 94.7483 129.36 97.1283C128.88 97.6583 128.96 98.4983 129.51 98.9483C133.89 102.458 138.69 104.288 143.01 103.968C146.82 101.038 148.73 96.1083 148.93 92.0983Z" fill="#1AACFF"/>
<path d="M109.58 77.7083C103.9 73.4483 93.55 68.9683 83.46 74.8583" stroke="#41435B" stroke-width="2" stroke-miterlimit="10" stroke-linecap="round" stroke-linejoin="round"/>
<path d="M132.3 81.9583C137.1 78.3583 144.02 75.5183 151.56 80.0783" stroke="#41435B" stroke-width="2" stroke-miterlimit="10" stroke-linecap="round" stroke-linejoin="round"/>
<path d="M154.2 222.178H119.8C119.8 222.178 137.43 206.118 126.11 188.748C115.76 172.878 127.76 159.708 128.3 158.988C128.32 158.968 128.32 158.968 128.32 158.968C136.63 154.678 144.22 146.708 148.33 136.948C144.62 145.598 139.96 168.018 151.66 184.018C172.69 212.818 154.2 222.178 154.2 222.178Z" fill="#41435B" stroke="#41435B" stroke-miterlimit="10" stroke-linecap="round" stroke-linejoin="round"/>
<path d="M53.8506 95.7483C53.8506 95.7483 59.2906 97.4783 59.2906 102.998" stroke="#41435B" stroke-width="2" stroke-miterlimit="10" stroke-linecap="round" stroke-linejoin="round"/>
<path d="M83.3807 89.6983C100.051 82.7683 108.461 91.6583 111.051 95.2983C111.611 96.0783 111.411 97.1483 110.601 97.6683C106.331 100.428 92.7707 107.378 82.5607 92.3983C81.9207 91.4483 82.3107 90.1483 83.3807 89.6983Z" fill="white"/>
<path d="M105.5 90.0283C100.86 87.1283 93.5399 85.3283 82.9299 89.8783C82.1099 90.2283 81.7999 91.2583 82.2899 91.9983C87.7799 100.308 94.2799 102.158 99.7999 101.648C103.44 98.0283 105.25 93.6383 105.5 90.0283Z" fill="#1AACFF"/>
<path d="M114.621 104.868C114.621 104.868 112.481 108.628 111.061 112.078C91.9307 115.288 81.5807 108.258 78.5407 106.568C78.0107 106.278 77.5107 98.0283 77.5107 98.0283" stroke="#41435B" stroke-width="2" stroke-miterlimit="10" stroke-linecap="round" stroke-linejoin="round"/>
<path d="M155.18 107.158C155.18 107.158 147.73 113.018 133.7 111.028L130.87 104.978" stroke="#41435B" stroke-width="2" stroke-miterlimit="10" stroke-linecap="round" stroke-linejoin="round"/>
<path d="M110.69 103.518C114.58 104.338 120.65 106.538 130.62 104.408" stroke="#41435B" stroke-width="2" stroke-miterlimit="10" stroke-linecap="round" stroke-linejoin="round"/>
<path d="M66.0801 92.0683L77.5001 98.0283" stroke="#41435B" stroke-width="2" stroke-miterlimit="10" stroke-linecap="round" stroke-linejoin="round"/>
<path d="M144.99 32.3884C139.04 24.3684 124.75 13.3684 93.5604 17.8784C53.2104 23.7084 55.4705 54.8884 53.8405 78.5084C43.6905 27.6884 67.7804 12.4084 90.3204 9.04835C109.26 6.21835 133.07 12.5984 144.99 32.3884Z" fill="#1AACFF" stroke="#1AACFF" stroke-width="2" stroke-miterlimit="10" stroke-linecap="round" stroke-linejoin="round"/>
<path d="M62.2899 225.008C44.1599 218.548 30.9199 200.418 37.8599 180.558C40.6199 172.668 46.0499 165.388 49.5299 156.778" stroke="black" stroke-width="2" stroke-miterlimit="10" stroke-linecap="round" stroke-linejoin="round"/>
<path d="M52.8301 197.268C55.3501 211.138 71.5901 222.178 81.0501 224.998" stroke="black" stroke-width="2" stroke-miterlimit="10" stroke-linecap="round" stroke-linejoin="round"/>
<path d="M137.57 224.608C137.57 224.608 154.91 213.968 145.97 197.268" stroke="black" stroke-width="2" stroke-miterlimit="10" stroke-linecap="round" stroke-linejoin="round"/>
</svg>
