<svg width="180" height="230" viewBox="0 0 180 230" fill="none" xmlns="http://www.w3.org/2000/svg">
<path d="M135.555 110.535C145.347 95.7799 160.018 98.475 163.026 114.968C165.419 128.099 150.997 139.306 134.879 136.236C133.516 143.52 124.297 204.902 85.7651 203.809C57.4623 203.008 41.3859 158.639 41.3859 130.878C41.3859 130.878 19.035 136.122 16.8186 113.552C15.1121 96.2274 34.5391 95.1764 40.7928 106.695C40.7928 106.695 36.1415 59.3921 59.5122 50.1312C72.6127 44.9389 78.7415 62.4825 101.842 51.8898C122.288 42.4936 143.328 64.5636 135.555 110.535Z" stroke="#41435B" stroke-width="2" stroke-miterlimit="10" stroke-linecap="round" stroke-linejoin="round"/>
<path d="M97.5752 107.351C97.5752 107.351 99.9684 99.8484 103.038 99.8484C106.108 99.8484 115.212 101.492 117.595 103.199C121.393 105.915 121.237 111.555 121.237 111.555L97.5752 107.351Z" fill="white"/>
<path d="M77.2843 106.029C77.2843 106.029 75.068 98.4645 71.9983 98.4021C68.9287 98.3292 59.7927 99.7652 57.3683 101.42C53.5079 104.042 53.5391 109.692 53.5391 109.692L77.2843 106.029Z" fill="white"/>
<path d="M93.5899 127.683C83.4342 133.396 74.9121 128.224 74.9121 123.094C74.9121 119.723 79.0015 116.591 84.2562 118.526" stroke="#41435B" stroke-width="2" stroke-miterlimit="10" stroke-linecap="round" stroke-linejoin="round"/>
<path d="M77.6699 139.66C77.6699 139.66 82.9247 145.018 92.3416 140.794" stroke="#41435B" stroke-width="2" stroke-miterlimit="10" stroke-linecap="round" stroke-linejoin="round"/>
<path d="M75.9728 86.4982C76.4411 89.88 71.717 90.5355 65.8796 91.3368C60.0421 92.1484 55.4013 92.0027 54.8498 89.4222C54.3711 87.1642 59.1056 85.3848 64.9431 84.5836C70.7701 83.772 75.5982 83.8136 75.9728 86.4982Z" fill="#41435B" stroke="#41435B" stroke-miterlimit="10" stroke-linecap="round" stroke-linejoin="round"/>
<path d="M120.477 92.242C119.707 95.5613 115.056 94.4896 109.322 93.1577C103.589 91.8258 99.2913 90.036 99.7075 87.4243C100.061 85.1351 105.129 85.1767 110.862 86.5086C116.596 87.8405 121.08 89.599 120.477 92.242Z" fill="#41435B" stroke="#41435B" stroke-miterlimit="10" stroke-linecap="round" stroke-linejoin="round"/>
<path d="M98.8555 130.888C98.8555 130.888 113.985 133.947 114.911 147.724C125.15 147.724 134.869 136.236 134.869 136.236" stroke="#41435B" stroke-width="2" stroke-miterlimit="10" stroke-linecap="round" stroke-linejoin="round"/>
<path d="M72.0922 130.888C59.741 133.541 56.6089 141.501 55.2042 147.131C48.5135 142.271 42.7489 137.589 41.3857 130.888" stroke="#41435B" stroke-width="2" stroke-miterlimit="10" stroke-linecap="round" stroke-linejoin="round"/>
<path d="M119.66 127.595C123.119 126.994 125.573 124.491 125.141 122.006C124.709 119.52 121.555 117.993 118.096 118.594C114.636 119.195 112.182 121.697 112.614 124.183C113.046 126.668 116.2 128.196 119.66 127.595Z" fill="#41435B" stroke="#41435B" stroke-miterlimit="10" stroke-linecap="round" stroke-linejoin="round"/>
<path d="M59.7947 121.369C60.2266 118.883 57.7724 116.381 54.3131 115.78C50.8538 115.179 47.6993 116.707 47.2674 119.192C46.8355 121.677 49.2897 124.18 52.749 124.781C56.2083 125.382 59.3628 123.854 59.7947 121.369Z" fill="#41435B" stroke="#41435B" stroke-miterlimit="10" stroke-linecap="round" stroke-linejoin="round"/>
<path d="M81.5605 117.787C81.5605 117.787 83.8706 115.144 82.882 108.943" stroke="#41435B" stroke-width="2" stroke-miterlimit="10" stroke-linecap="round" stroke-linejoin="round"/>
<path d="M85.0059 149.545H86.5251" stroke="#41435B" stroke-width="2" stroke-miterlimit="10" stroke-linecap="round" stroke-linejoin="round"/>
<path d="M142.36 117.309C142.36 117.309 145.742 111.492 150.258 113.989" stroke="#41435B" stroke-width="2" stroke-miterlimit="10" stroke-linecap="round" stroke-linejoin="round"/>
<path d="M28.1611 111.346C30.9914 110.483 34.3836 111.992 35.2264 114.104" stroke="#41435B" stroke-width="2" stroke-miterlimit="10" stroke-linecap="round" stroke-linejoin="round"/>
<path d="M67.857 107.486C68.1795 106.404 68.3877 105.259 68.3877 104.042C68.3877 102.127 67.9194 100.358 67.1494 98.8182C63.4034 99.3489 58.9499 100.337 57.3683 101.42C53.5079 104.042 53.5391 109.692 53.5391 109.692L67.857 107.486Z" fill="#1AACFF"/>
<path d="M111.789 109.879C112.278 108.641 112.58 107.278 112.58 105.811C112.58 104.083 112.163 102.481 111.487 101.087C108.261 100.348 104.723 99.8484 103.027 99.8484C99.9577 99.8484 97.5645 107.351 97.5645 107.351L111.789 109.879Z" fill="#1AACFF"/>
<path d="M40.6152 90.0049C38.2115 64.7197 41.3852 36.8955 71.6547 32.931C103.776 28.7272 101.456 31.5783 111.924 34.2941C130.81 38.2898 142.682 58.9759 137.5 93.1057" stroke="#41435B" stroke-width="2" stroke-miterlimit="10" stroke-linecap="round" stroke-linejoin="round"/>
<path d="M114.599 50.0791C119.624 50.0791 131.383 51.9417 129.603 45.5527" stroke="#41435B" stroke-width="2" stroke-miterlimit="10" stroke-linecap="round" stroke-linejoin="round"/>
<path d="M124.13 54.6679C128.198 56.7698 133.526 56.6242 134.452 53.9916" stroke="#41435B" stroke-width="2" stroke-miterlimit="10" stroke-linecap="round" stroke-linejoin="round"/>
<path d="M67.472 27.2496C66.8997 14.3052 81.7795 -4.75759 102.653 4.98191C123.526 14.7214 116.94 36.1983 116.94 36.1983C116.94 36.1983 108.043 34.4502 106.347 38.4563C104.651 42.4623 97.8872 52.1394 83.7878 42.9202C69.6884 33.701 54.819 42.119 52.7067 38.4042C50.6048 34.6791 67.472 27.2496 67.472 27.2496Z" fill="#1AACFF" stroke="#1AACFF" stroke-width="2" stroke-miterlimit="10" stroke-linecap="round" stroke-linejoin="round"/>
<path d="M63.7783 26.3651C63.7783 26.3651 83.1845 22.4527 101.841 36.9058" stroke="black" stroke-width="2" stroke-miterlimit="10" stroke-linecap="round" stroke-linejoin="round"/>
<path d="M82.0918 27.3328C82.7473 20.33 87.2633 11.6414 94.672 7.95789" stroke="black" stroke-width="2" stroke-miterlimit="10" stroke-linecap="round" stroke-linejoin="round"/>
<path d="M143.547 130.191C144.944 130.191 146.076 129.059 146.076 127.662C146.076 126.266 144.944 125.134 143.547 125.134C142.151 125.134 141.019 126.266 141.019 127.662C141.019 129.059 142.151 130.191 143.547 130.191Z" fill="#41435B"/>
<path d="M35.1115 126.101C36.5252 126.101 37.6712 124.955 37.6712 123.542C37.6712 122.128 36.5252 120.982 35.1115 120.982C33.6978 120.982 32.5518 122.128 32.5518 123.542C32.5518 124.955 33.6978 126.101 35.1115 126.101Z" fill="#41435B"/>
<path d="M134.879 136.236L132.642 227.69" stroke="#41435B" stroke-width="2" stroke-miterlimit="10" stroke-linecap="round" stroke-linejoin="round"/>
<path d="M60.8852 189.762L54.6836 225.567" stroke="#41435B" stroke-width="2" stroke-miterlimit="10" stroke-linecap="round" stroke-linejoin="round"/>
<path d="M50.1377 154.477V171.448" stroke="#41435B" stroke-width="2" stroke-miterlimit="10" stroke-linecap="round" stroke-linejoin="round"/>
<path d="M57.7852 168.139V185.1" stroke="#41435B" stroke-width="2" stroke-miterlimit="10" stroke-linecap="round" stroke-linejoin="round"/>
<path d="M67.2227 179.19V196.161" stroke="#41435B" stroke-width="2" stroke-miterlimit="10" stroke-linecap="round" stroke-linejoin="round"/>
<path d="M78.1797 185.1V202.072" stroke="#41435B" stroke-width="2" stroke-miterlimit="10" stroke-linecap="round" stroke-linejoin="round"/>
<path d="M90 186.058V203.029" stroke="#41435B" stroke-width="2" stroke-miterlimit="10" stroke-linecap="round" stroke-linejoin="round"/>
<path d="M102.372 182.322V199.293" stroke="#41435B" stroke-width="2" stroke-miterlimit="10" stroke-linecap="round" stroke-linejoin="round"/>
<path d="M113.631 172.791V189.762" stroke="#41435B" stroke-width="2" stroke-miterlimit="10" stroke-linecap="round" stroke-linejoin="round"/>
<path d="M123.1 157.796V174.757" stroke="#41435B" stroke-width="2" stroke-miterlimit="10" stroke-linecap="round" stroke-linejoin="round"/>
<path d="M108.879 24.8104C108.879 24.8104 107.652 17.9011 99.9932 11.0023" stroke="black" stroke-width="2" stroke-miterlimit="10" stroke-linecap="round" stroke-linejoin="round"/>
<path d="M101.606 28.0048C101.606 28.0048 100.378 21.0956 92.7197 14.1968" stroke="black" stroke-width="2" stroke-miterlimit="10" stroke-linecap="round" stroke-linejoin="round"/>
</svg>
