<svg width="180" height="230" viewBox="0 0 180 230" fill="none" xmlns="http://www.w3.org/2000/svg">
<path d="M103.059 143.849C103.059 143.849 108.494 142.44 114.523 142.44" stroke="#41435B" stroke-width="2" stroke-miterlimit="10" stroke-linecap="round" stroke-linejoin="round"/>
<path d="M97.6981 106.983C93.661 107.296 82.2696 107.473 70.1062 101.319C69.0839 100.807 68.9588 99.347 69.8767 98.6689C75.5829 94.4858 85.7851 92.8585 94.8085 94.3815C95.3614 94.4754 95.8412 94.8405 96.0916 95.3516C98.0006 99.347 98.7725 103.186 99.075 105.251C99.1898 106.148 98.5848 106.92 97.6981 106.983Z" fill="white"/>
<path d="M139.704 106.096C136.398 107.223 127.197 109.685 115.67 107.171C115.044 107.035 113.677 103.217 114.136 102.737C118.455 98.2413 126.206 95.0909 133.79 94.6215C134.301 94.5902 134.833 94.8406 135.177 95.2683C137.931 98.6899 139.642 102.216 140.456 104.135C140.81 104.97 140.476 105.836 139.704 106.096Z" fill="white"/>
<path d="M94.1708 83.2196C94.5568 85.7858 89.7269 86.5056 83.7809 87.3923C77.8244 88.279 73.1092 88.3937 72.6189 86.443C72.1912 84.7322 77.0629 83.157 83.0089 82.2703C88.9654 81.3836 93.8683 81.1854 94.1708 83.2196Z" fill="#41435B" stroke="#41435B" stroke-miterlimit="10" stroke-linecap="round" stroke-linejoin="round"/>
<path d="M139.769 86.0885C139.487 88.6651 134.96 88.1748 129.369 87.5593C123.777 86.9439 119.5 85.8798 119.531 83.877C119.563 82.114 124.34 81.7906 129.932 82.4061C135.523 83.0216 139.998 84.0334 139.769 86.0885Z" fill="#41435B" stroke="#41435B" stroke-miterlimit="10" stroke-linecap="round" stroke-linejoin="round"/>
<path d="M57.7451 148.115L59.4872 221.794" stroke="#41435B" stroke-width="2" stroke-miterlimit="10" stroke-linecap="round" stroke-linejoin="round"/>
<path d="M118.676 183.27L126.51 220.396" stroke="#41435B" stroke-width="2" stroke-miterlimit="10" stroke-linecap="round" stroke-linejoin="round"/>
<path d="M111.864 97.292C111.864 97.292 119.532 111.771 119.542 125.677C119.553 132.092 107.932 132.384 107.932 132.384" stroke="#41435B" stroke-width="2" stroke-miterlimit="10" stroke-linecap="round" stroke-linejoin="round"/>
<path d="M67.611 51.4762C100.554 52.5193 142.949 77.6493 142.594 103.624C141.196 117.989 140.602 123.903 140.602 123.903C140.602 123.903 164.907 94.0687 158.492 73.4766C150.115 46.5941 107.95 -11.6773 61.9466 27.6502C44.317 25.8768 0.357901 45.9682 31.6843 104.605C35.012 102.487 42.9192 102.633 46.6642 107.004C48.4897 92.2641 50.1588 69.4395 67.611 51.4762Z" fill="#1AACFF"/>
<path d="M142.439 97.7822C141.135 137.256 133.499 183.28 110.122 186.879C91.96 189.675 63.6796 165.234 57.744 148.115C57.744 148.115 39.9267 158.516 25.4997 135.816C9.95643 111.375 33.7616 93.2549 48.3659 109.226" stroke="#41435B" stroke-width="2" stroke-miterlimit="10" stroke-linecap="round" stroke-linejoin="round"/>
<path d="M32.6035 117.384C32.6035 117.384 40.6359 117.79 44.2974 123.903" stroke="#41435B" stroke-width="2" stroke-miterlimit="10" stroke-linecap="round" stroke-linejoin="round"/>
<path d="M94.8191 94.392C90.3439 93.6409 85.5662 93.6618 81.2057 94.3816C81.0493 95.1431 80.9658 95.9359 80.9658 96.7496C80.9658 100.724 82.9165 104.24 85.9104 106.409C91.2723 107.265 95.5493 107.15 97.6983 106.983C98.5849 106.91 99.19 106.149 99.0648 105.262C98.7623 103.196 97.9903 99.3471 96.0813 95.3622C95.8518 94.8614 95.372 94.4859 94.8191 94.392Z" fill="#1AACFF"/>
<path d="M135.158 95.237C134.803 94.7988 134.282 94.5485 133.76 94.5902C129.629 94.8406 125.477 95.915 121.826 97.5424C122.629 102.257 125.728 106.169 129.952 108.089C134.511 107.682 137.943 106.712 139.706 106.107C140.478 105.846 140.812 104.97 140.457 104.146C139.644 102.216 137.922 98.6794 135.158 95.237Z" fill="#1AACFF"/>
<path d="M61.9375 27.65C61.9375 27.65 67.4663 4.25174 99.0952 8.78953" stroke="#1AACFF" stroke-width="2" stroke-miterlimit="10" stroke-linecap="round" stroke-linejoin="round"/>
<path d="M38.4551 27.6502C38.4551 27.6502 57.0444 20.1393 62.9904 29.9243" stroke="#1AACFF" stroke-width="2" stroke-miterlimit="10" stroke-linecap="round" stroke-linejoin="round"/>
<path d="M67.6123 51.4761C67.6123 51.4761 88.653 53.8336 107.941 70.5974" stroke="#1AACFF" stroke-width="2" stroke-miterlimit="10" stroke-linecap="round" stroke-linejoin="round"/>
<path d="M65.4219 33.9298C95.4547 17.9276 118.676 51.4759 142.439 66.0594" stroke="#41435B" stroke-width="2" stroke-miterlimit="10" stroke-linecap="round" stroke-linejoin="round"/>
<path d="M127.386 39.5005C135.199 46.2185 140.603 52.4462 140.603 52.4462" stroke="#41435B" stroke-width="2" stroke-miterlimit="10" stroke-linecap="round" stroke-linejoin="round"/>
<path d="M58.0354 66.2786C52.6839 78.1916 45.5174 85.7858 35.0439 88.0182" stroke="black" stroke-width="2" stroke-miterlimit="10" stroke-linecap="round" stroke-linejoin="round"/>
<path d="M51.0157 86.2554C48.0114 89.4266 44.4333 91.6173 40.125 92.723" stroke="black" stroke-width="2" stroke-miterlimit="10" stroke-linecap="round" stroke-linejoin="round"/>
<path d="M108.41 154.082C108.41 154.082 110.455 152.048 112.489 153.508" stroke="#41435B" stroke-width="2" stroke-miterlimit="10" stroke-linecap="round" stroke-linejoin="round"/>
</svg>
