<svg width="45" height="45" viewBox="0 0 45 45" fill="none" xmlns="http://www.w3.org/2000/svg">
<path fill-rule="evenodd" clip-rule="evenodd" d="M31.742 14.987C31.1216 15.3845 29.6974 15.9621 28.995 15.9621V15.9633C28.1929 15.1251 27.0638 14.6018 25.8115 14.6018C23.3793 14.6018 21.407 16.5748 21.407 19.007C21.407 19.345 21.4462 19.6746 21.5185 19.9907H21.5178C18.2186 19.9041 14.6102 18.2498 12.438 15.4184C11.1025 17.731 12.2582 20.303 13.7738 21.2402C13.255 21.2793 12.3 21.1804 11.8504 20.7416C11.8203 22.2765 12.5581 24.3103 15.2481 25.0481C14.73 25.3269 13.8129 25.247 13.4142 25.1876C13.5541 26.4834 15.3679 28.1773 17.3513 28.1773C16.6444 28.9953 13.9847 30.479 11 30.007C13.027 31.2408 15.3895 31.9553 17.89 31.9553C24.9959 31.9553 30.5144 26.1941 30.2174 19.0868C30.2162 19.079 30.2162 19.0711 30.2155 19.0626C30.2162 19.0443 30.2174 19.026 30.2174 19.007C30.2174 18.985 30.2155 18.9641 30.2148 18.9427C30.8617 18.5001 31.7296 17.7173 32.3497 16.6868C31.9901 16.885 30.9112 17.2818 29.9073 17.3803C30.5516 17.0324 31.5062 15.893 31.742 14.987" fill="white"/>
</svg>
