<svg width="45" height="45" viewBox="0 0 45 45" fill="none" xmlns="http://www.w3.org/2000/svg">
<path fill-rule="evenodd" clip-rule="evenodd" d="M25.3809 23.1053L25.3803 23.1049L19.3306 26.241V26.2404L19.3295 26.241V19.0629L26.2299 22.6645L25.3809 23.1053ZM31.4895 16.1984C30.6696 15.3392 29.7504 15.3349 29.3289 15.2846C26.335 15.0681 21.8557 15.0664 21.7859 15.0664H21.7851H21.7757H21.7749C21.7051 15.0664 17.2259 15.0681 14.2319 15.2846C13.8103 15.3349 12.8916 15.3392 12.0713 16.1984C11.4248 16.853 11.2144 18.3395 11.2144 18.3395C11.2144 18.3395 11.0176 19.933 11 21.5975V23.7009C11.0176 25.3653 11.2144 26.9588 11.2144 26.9588C11.2144 26.9588 11.4248 28.4454 12.0713 29.1C12.8916 29.9592 13.9691 29.932 14.449 30.0221C16.0203 30.1728 20.8118 30.2287 21.6534 30.2375H22.0869C23.1541 30.2315 26.781 30.198 29.3289 30.0137C29.7504 29.9634 30.6696 29.9592 31.4895 29.1C32.1361 28.4454 32.3468 26.9588 32.3468 26.9588C32.3468 26.9588 32.5621 25.2131 32.5621 23.4675V21.8309C32.5621 20.0852 32.3468 18.3395 32.3468 18.3395C32.3468 18.3395 32.1361 16.853 31.4895 16.1984V16.1984Z" fill="white"/>
</svg>
