<svg width="180" height="230" viewBox="0 0 180 230" fill="none" xmlns="http://www.w3.org/2000/svg">
<path d="M53.0809 103.85C23.2568 73.1569 1.87155 136.789 45.528 137.956C61.0215 178.836 79.5605 192.602 100.946 192.833C120.459 193.042 141.712 154.178 149.597 104.896" stroke="#41435B" stroke-width="2" stroke-miterlimit="10" stroke-linecap="round" stroke-linejoin="round"/>
<path d="M36.8457 112.462C36.8457 112.462 43.3576 113.926 44.8416 120.589" stroke="#41435B" stroke-width="2" stroke-miterlimit="10" stroke-linecap="round" stroke-linejoin="round"/>
<path d="M40.4892 137.505L10.5986 204.661" stroke="#41435B" stroke-width="2" stroke-miterlimit="10" stroke-linecap="round" stroke-linejoin="round"/>
<path d="M92.5744 191.985L82.9395 222.634" stroke="#41435B" stroke-width="2" stroke-miterlimit="10" stroke-linecap="round" stroke-linejoin="round"/>
<path d="M108.621 97.0326C107.679 101.217 100.536 99.6206 91.7319 97.6493C82.9275 95.678 76.2938 93.2002 76.7368 89.9073C77.1244 87.022 84.8213 87.3193 93.6257 89.2906C102.43 91.2509 109.374 93.7067 108.621 97.0326Z" fill="#41435B" stroke="#41435B" stroke-width="2" stroke-miterlimit="10" stroke-linecap="round" stroke-linejoin="round"/>
<path d="M151.712 101.162C151.9 105.446 145.123 105.733 136.772 106.096C128.422 106.46 121.877 105.755 121.456 102.473C121.091 99.5876 128.046 97.9026 136.396 97.5392C144.746 97.1758 151.568 97.7595 151.712 101.162Z" fill="#41435B" stroke="#41435B" stroke-width="2" stroke-miterlimit="10" stroke-linecap="round" stroke-linejoin="round"/>
<path d="M94.0908 148.859C97.7344 155.544 105.431 158.781 107.547 159.156" stroke="#41435B" stroke-width="2" stroke-miterlimit="10" stroke-linecap="round" stroke-linejoin="round"/>
<path d="M99.0411 53.8405C108.289 70.7451 118.056 91.1408 150.394 107.341C148.545 119.245 145.245 129.058 145.245 129.058C145.245 129.058 197.395 93.3324 164.537 51.1203C131.678 8.90827 113.006 7.54268 91.4882 18.6216C75.7843 9.4479 44.6422 18.7317 19.2258 65.5361C8.88206 84.5772 20.5663 114.741 20.5663 114.741C20.5663 114.741 19.0819 101.735 33.0027 96.416C41.5524 93.1451 47.9425 97.8146 52.3945 103.035C53.9228 104.83 56.8576 103.75 56.9573 101.394C57.8433 80.6456 75.7621 76.4497 99.0411 53.8405Z" fill="#1AACFF"/>
<path d="M98.6318 53.6863C98.6318 53.6863 102.519 87.5837 130.638 104.345" stroke="#1AACFF" stroke-width="2" stroke-miterlimit="10" stroke-linecap="round" stroke-linejoin="round"/>
<path d="M91.0665 19.2933C91.0665 19.2933 78.8622 5.4502 56.8457 9.0624" stroke="#1AACFF" stroke-width="2" stroke-miterlimit="10" stroke-linecap="round" stroke-linejoin="round"/>
<path d="M107.79 7.36646C107.79 7.36646 94.8771 9.72319 89.4727 20.9452" stroke="#1AACFF" stroke-width="2" stroke-miterlimit="10" stroke-linecap="round" stroke-linejoin="round"/>
<path d="M94.5775 141.48C82.2846 137.505 72.1402 146.634 67.7435 154.167C63.3469 161.7 45.5166 137.945 45.5166 137.945" stroke="#41435B" stroke-width="2" stroke-miterlimit="10" stroke-linecap="round" stroke-linejoin="round"/>
<path d="M122.121 150.753C129.109 154.057 130.638 159.751 129.951 166.821" stroke="#41435B" stroke-width="2" stroke-miterlimit="10" stroke-linecap="round" stroke-linejoin="round"/>
<path d="M98.0557 163.561L102.308 164.607" stroke="#41435B" stroke-width="2" stroke-miterlimit="10" stroke-linecap="round" stroke-linejoin="round"/>
<path d="M103.206 121.822C99.1636 121.602 87.8674 120.292 76.6266 112.66C75.6852 112.021 75.7517 110.567 76.7484 110.028C82.9391 106.647 93.2608 106.383 101.999 109.059C102.53 109.224 102.962 109.653 103.139 110.182C104.502 114.356 104.767 118.243 104.79 120.325C104.79 121.195 104.092 121.878 103.206 121.822Z" fill="white"/>
<path d="M95.4529 100.755L83.9131 85.2599" stroke="black" stroke-width="2" stroke-miterlimit="10" stroke-linecap="round" stroke-linejoin="round"/>
<path d="M89.3285 99.918L82.584 92.165" stroke="black" stroke-width="2" stroke-miterlimit="10" stroke-linecap="round" stroke-linejoin="round"/>
<path d="M76.0163 112.241C82.6057 116.856 89.2506 119.245 94.4889 120.49C96.9585 115.567 96.283 110.468 95.5521 107.649C88.2538 106.647 80.8116 107.517 76.1049 110.38C75.4293 110.799 75.3629 111.779 76.0163 112.241Z" fill="#1AACFF"/>
<path d="M140.461 126.327C140.538 127.208 139.851 127.957 138.965 127.957C135.765 127.99 128.079 127.626 119.396 123.981C118.245 122.307 116.716 118.706 117.447 116.668C123.029 114.73 130.449 114.477 137.072 116.008C137.614 116.129 138.068 116.525 138.268 117.032C139.785 120.809 140.294 124.366 140.461 126.327Z" fill="white"/>
<path d="M118.964 123.805C123.295 125.666 127.381 126.701 130.825 127.274C132.83 122.483 131.855 117.737 130.992 115.127C126.03 114.785 121.069 115.358 117.093 116.812C117.491 118.827 118.101 121.833 118.964 123.805Z" fill="#1AACFF"/>
<path d="M115.365 113.574C120.636 128.386 121.666 136.128 121.633 142.262C121.611 146.062 102.474 149.443 102.54 143.584" stroke="#41435B" stroke-width="2" stroke-miterlimit="10" stroke-linecap="round" stroke-linejoin="round"/>
<path d="M53.0809 103.85C23.2568 73.1569 1.87155 136.789 45.528 137.956C61.0215 178.836 79.5605 192.602 100.946 192.833C120.027 193.042 140.77 155.874 149.054 108.145" stroke="#41435B" stroke-width="2" stroke-miterlimit="10" stroke-linecap="round" stroke-linejoin="round"/>
<path d="M107.536 38.819C107.536 38.819 134.902 53.6973 149.587 93.0129" stroke="#41435B" stroke-width="2" stroke-miterlimit="10" stroke-linecap="round" stroke-linejoin="round"/>
<path d="M146.929 61.6705C146.929 61.6705 173.131 92.0989 147.217 117.582" stroke="#41435B" stroke-width="2" stroke-miterlimit="10" stroke-linecap="round" stroke-linejoin="round"/>
<path d="M75.6069 44.2263C75.6069 44.2263 64.3772 65.2166 32.4932 75.7118" stroke="#41435B" stroke-width="2" stroke-miterlimit="10" stroke-linecap="round" stroke-linejoin="round"/>
<path d="M58.2863 48.8297C58.2863 48.8297 53.9671 56.0871 39.5146 60.294" stroke="#41435B" stroke-width="2" stroke-miterlimit="10" stroke-linecap="round" stroke-linejoin="round"/>
</svg>
